<svg width="247" height="197" viewBox="0 0 247 197" version="1.1" xmlns="http://www.w3.org/2000/svg" xmlns:xlink="http://www.w3.org/1999/xlink">
<title>Group</title>
<desc>Created using Figma</desc>
<g id="Canvas" transform="translate(-78 1684)">
<g id="Group">
<g id="Vector">
<use xlink:href="#path0_fill" transform="translate(78 -1684)" fill="#EB5757"/>
</g>
<g id="Reading books make me happier">
<use xlink:href="#path1_fill" transform="translate(133 -1637)" fill="#EB5757"/>
</g>
</g>
</g>
<defs>
<path id="path0_fill" fill-rule="evenodd" d="M 30.8743 85.406C 30.8743 104.247 44.9267 119.827 62.7681 129.835C 70.0948 133.942 75.0172 140.498 76.3173 147.883C 77.5618 154.984 75.2502 157.29 82.4048 151.198C 89.1887 145.426 98.6443 142.699 108.132 143.711C 151.229 148.37 216.115 129.529 216.115 85.4105C 216.115 6.43881 31.3933 7.63327 30.8743 85.406ZM 123.5 0C 191.71 0 247 38.2339 247 85.406C 247 145.931 166.79 176.584 104.242 169.775C 77.7101 192.357 46.0494 196.403 15.4372 197L 15.4372 191.476C 33.8108 183.818 49.0362 170.24 45.7872 151.782C 17.8547 136.125 0 112.202 0 85.406C 0 31.1731 66.2633 0 123.5 0Z"/>
<path id="path1_fill" d="M 7.18652 14.2744L 4.61914 14.2744L 4.61914 20L 1.39648 20L 1.39648 4.35938L 7.20801 4.35938C 9.05566 4.35938 10.4808 4.77116 11.4834 5.59473C 12.486 6.41829 12.9873 7.58203 12.9873 9.08594C 12.9873 10.153 12.7546 11.0446 12.2891 11.7607C 11.8307 12.4697 11.1325 13.0355 10.1943 13.458L 13.5781 19.8496L 13.5781 20L 10.1191 20L 7.18652 14.2744ZM 4.61914 11.6641L 7.21875 11.6641C 8.02799 11.6641 8.65462 11.46 9.09863 11.0518C 9.54264 10.6364 9.76465 10.0671 9.76465 9.34375C 9.76465 8.60612 9.55339 8.02604 9.13086 7.60352C 8.71549 7.18099 8.07454 6.96973 7.20801 6.96973L 4.61914 6.96973L 4.61914 11.6641ZM 20.5928 20.2148C 18.8883 20.2148 17.499 19.6921 16.4248 18.6465C 15.3577 17.6009 14.8242 16.208 14.8242 14.4678L 14.8242 14.167C 14.8242 12.9997 15.0498 11.9577 15.501 11.041C 15.9521 10.1172 16.5895 9.4082 17.4131 8.91406C 18.2438 8.41276 19.1891 8.16211 20.249 8.16211C 21.8389 8.16211 23.0885 8.66341 23.998 9.66602C 24.9147 10.6686 25.373 12.0902 25.373 13.9307L 25.373 15.1982L 17.9717 15.1982C 18.0719 15.9574 18.3727 16.5661 18.874 17.0244C 19.3825 17.4827 20.0234 17.7119 20.7969 17.7119C 21.9928 17.7119 22.9274 17.2786 23.6006 16.4121L 25.126 18.1201C 24.6605 18.779 24.0303 19.2946 23.2354 19.667C 22.4404 20.0322 21.5596 20.2148 20.5928 20.2148ZM 20.2383 10.6758C 19.6224 10.6758 19.1211 10.8835 18.7344 11.2988C 18.3548 11.7142 18.1113 12.3086 18.0039 13.082L 22.3223 13.082L 22.3223 12.835C 22.3079 12.1475 22.1217 11.6175 21.7637 11.2451C 21.4056 10.8656 20.8971 10.6758 20.2383 10.6758ZM 33.8809 20C 33.7376 19.7207 33.6338 19.3734 33.5693 18.958C 32.8174 19.7959 31.8398 20.2148 30.6367 20.2148C 29.498 20.2148 28.5527 19.8854 27.8008 19.2266C 27.056 18.5677 26.6836 17.737 26.6836 16.7344C 26.6836 15.5026 27.1383 14.5573 28.0479 13.8984C 28.9645 13.2396 30.2858 12.9066 32.0117 12.8994L 33.4404 12.8994L 33.4404 12.2334C 33.4404 11.6963 33.3008 11.2666 33.0215 10.9443C 32.7493 10.6221 32.3161 10.4609 31.7217 10.4609C 31.1989 10.4609 30.7871 10.5863 30.4863 10.8369C 30.1927 11.0876 30.0459 11.4313 30.0459 11.8682L 26.9414 11.8682C 26.9414 11.195 27.1491 10.5719 27.5645 9.99902C 27.9798 9.42611 28.5671 8.97852 29.3262 8.65625C 30.0853 8.32682 30.9375 8.16211 31.8828 8.16211C 33.3151 8.16211 34.4502 8.52376 35.2881 9.24707C 36.1331 9.96322 36.5557 10.973 36.5557 12.2764L 36.5557 17.3145C 36.5628 18.4173 36.7168 19.2516 37.0176 19.8174L 37.0176 20L 33.8809 20ZM 31.3135 17.8408C 31.7718 17.8408 32.1943 17.7406 32.5811 17.54C 32.9678 17.3324 33.2542 17.0566 33.4404 16.7129L 33.4404 14.7148L 32.2803 14.7148C 30.7262 14.7148 29.8991 15.252 29.7988 16.3262L 29.7881 16.5088C 29.7881 16.8955 29.9242 17.2142 30.1963 17.4648C 30.4684 17.7155 30.8408 17.8408 31.3135 17.8408ZM 38.457 14.1025C 38.457 12.2907 38.8617 10.8477 39.6709 9.77344C 40.4873 8.69922 41.6009 8.16211 43.0117 8.16211C 44.1432 8.16211 45.0778 8.58464 45.8154 9.42969L 45.8154 3.5L 48.9307 3.5L 48.9307 20L 46.127 20L 45.9766 18.7646C 45.2031 19.7314 44.2077 20.2148 42.9902 20.2148C 41.6224 20.2148 40.5231 19.6777 39.6924 18.6035C 38.8688 17.5221 38.457 16.0218 38.457 14.1025ZM 41.5615 14.3281C 41.5615 15.4167 41.7513 16.251 42.1309 16.8311C 42.5104 17.4111 43.0618 17.7012 43.7852 17.7012C 44.7448 17.7012 45.4215 17.2965 45.8154 16.4873L 45.8154 11.9004C 45.4287 11.0911 44.7591 10.6865 43.8066 10.6865C 42.3099 10.6865 41.5615 11.9004 41.5615 14.3281ZM 54.6133 20L 51.498 20L 51.498 8.37695L 54.6133 8.37695L 54.6133 20ZM 51.3154 5.36914C 51.3154 4.90365 51.4694 4.52051 51.7773 4.21973C 52.0924 3.91895 52.5186 3.76855 53.0557 3.76855C 53.5856 3.76855 54.0081 3.91895 54.3232 4.21973C 54.6383 4.52051 54.7959 4.90365 54.7959 5.36914C 54.7959 5.8418 54.6348 6.22852 54.3125 6.5293C 53.9974 6.83008 53.5785 6.98047 53.0557 6.98047C 52.5329 6.98047 52.1104 6.83008 51.7881 6.5293C 51.473 6.22852 51.3154 5.8418 51.3154 5.36914ZM 60.0381 8.37695L 60.1348 9.71973C 60.9655 8.68132 62.0791 8.16211 63.4756 8.16211C 64.7074 8.16211 65.624 8.52376 66.2256 9.24707C 66.8271 9.97038 67.1351 11.0518 67.1494 12.4912L 67.1494 20L 64.0449 20L 64.0449 12.5664C 64.0449 11.9076 63.9017 11.4313 63.6152 11.1377C 63.3288 10.8369 62.8525 10.6865 62.1865 10.6865C 61.3128 10.6865 60.6576 11.0589 60.2207 11.8037L 60.2207 20L 57.1162 20L 57.1162 8.37695L 60.0381 8.37695ZM 69.0615 14.1025C 69.0615 12.3193 69.484 10.8835 70.3291 9.79492C 71.1813 8.70638 72.3271 8.16211 73.7666 8.16211C 75.0413 8.16211 76.0332 8.59896 76.7422 9.47266L 76.8711 8.37695L 79.6855 8.37695L 79.6855 19.6133C 79.6855 20.6302 79.4528 21.5146 78.9873 22.2666C 78.529 23.0186 77.8809 23.5915 77.043 23.9854C 76.2051 24.3792 75.224 24.5762 74.0996 24.5762C 73.2474 24.5762 72.4167 24.4043 71.6074 24.0605C 70.7982 23.724 70.1859 23.2871 69.7705 22.75L 71.1455 20.8594C 71.9189 21.7259 72.8571 22.1592 73.96 22.1592C 74.7835 22.1592 75.4245 21.9372 75.8828 21.4932C 76.3411 21.0563 76.5703 20.4333 76.5703 19.624L 76.5703 19.001C 75.8542 19.8102 74.9124 20.2148 73.7451 20.2148C 72.3486 20.2148 71.2171 19.6706 70.3506 18.582C 69.4912 17.4863 69.0615 16.0361 69.0615 14.2314L 69.0615 14.1025ZM 72.166 14.3281C 72.166 15.3809 72.3773 16.208 72.7998 16.8096C 73.2223 17.404 73.8024 17.7012 74.54 17.7012C 75.4854 17.7012 76.1621 17.3467 76.5703 16.6377L 76.5703 11.75C 76.1549 11.041 75.4854 10.6865 74.5615 10.6865C 73.8167 10.6865 73.2295 10.9909 72.7998 11.5996C 72.3773 12.2083 72.166 13.1178 72.166 14.3281ZM 98.0332 14.2959C 98.0332 16.1579 97.6357 17.6117 96.8408 18.6572C 96.0459 19.6956 94.9359 20.2148 93.5107 20.2148C 92.2503 20.2148 91.2441 19.7314 90.4922 18.7646L 90.3525 20L 87.5596 20L 87.5596 3.5L 90.6641 3.5L 90.6641 9.41895C 91.3802 8.58105 92.3219 8.16211 93.4893 8.16211C 94.9072 8.16211 96.0173 8.6849 96.8193 9.73047C 97.6286 10.7689 98.0332 12.2334 98.0332 14.124L 98.0332 14.2959ZM 94.9287 14.0703C 94.9287 12.8958 94.7425 12.04 94.3701 11.5029C 93.9977 10.9587 93.4427 10.6865 92.7051 10.6865C 91.7168 10.6865 91.0365 11.0911 90.6641 11.9004L 90.6641 16.4873C 91.0436 17.3037 91.7311 17.7119 92.7266 17.7119C 93.7292 17.7119 94.388 17.2178 94.7031 16.2295C 94.8535 15.7568 94.9287 15.0371 94.9287 14.0703ZM 99.4727 14.0811C 99.4727 12.9281 99.6947 11.9004 100.139 10.998C 100.583 10.0957 101.22 9.39746 102.051 8.90332C 102.889 8.40918 103.859 8.16211 104.962 8.16211C 106.53 8.16211 107.809 8.64193 108.797 9.60156C 109.792 10.5612 110.347 11.8646 110.462 13.5117L 110.483 14.3066C 110.483 16.0898 109.986 17.5221 108.99 18.6035C 107.995 19.6777 106.659 20.2148 104.983 20.2148C 103.308 20.2148 101.968 19.6777 100.966 18.6035C 99.9704 17.5293 99.4727 16.0684 99.4727 14.2207L 99.4727 14.0811ZM 102.577 14.3066C 102.577 15.4095 102.785 16.2546 103.2 16.8418C 103.616 17.4219 104.21 17.7119 104.983 17.7119C 105.735 17.7119 106.323 17.4255 106.745 16.8525C 107.168 16.2725 107.379 15.3486 107.379 14.0811C 107.379 12.9997 107.168 12.1618 106.745 11.5674C 106.323 10.973 105.728 10.6758 104.962 10.6758C 104.203 10.6758 103.616 10.973 103.2 11.5674C 102.785 12.1546 102.577 13.0677 102.577 14.3066ZM 111.912 14.0811C 111.912 12.9281 112.134 11.9004 112.578 10.998C 113.022 10.0957 113.66 9.39746 114.49 8.90332C 115.328 8.40918 116.299 8.16211 117.401 8.16211C 118.97 8.16211 120.248 8.64193 121.236 9.60156C 122.232 10.5612 122.787 11.8646 122.901 13.5117L 122.923 14.3066C 122.923 16.0898 122.425 17.5221 121.43 18.6035C 120.434 19.6777 119.099 20.2148 117.423 20.2148C 115.747 20.2148 114.408 19.6777 113.405 18.6035C 112.41 17.5293 111.912 16.0684 111.912 14.2207L 111.912 14.0811ZM 115.017 14.3066C 115.017 15.4095 115.224 16.2546 115.64 16.8418C 116.055 17.4219 116.649 17.7119 117.423 17.7119C 118.175 17.7119 118.762 17.4255 119.185 16.8525C 119.607 16.2725 119.818 15.3486 119.818 14.0811C 119.818 12.9997 119.607 12.1618 119.185 11.5674C 118.762 10.973 118.168 10.6758 117.401 10.6758C 116.642 10.6758 116.055 10.973 115.64 11.5674C 115.224 12.1546 115.017 13.0677 115.017 14.3066ZM 129.057 15.3379L 127.939 16.4551L 127.939 20L 124.835 20L 124.835 3.5L 127.939 3.5L 127.939 12.6416L 128.541 11.8682L 131.517 8.37695L 135.244 8.37695L 131.044 13.2217L 135.609 20L 132.043 20L 129.057 15.3379ZM 142.882 16.7881C 142.882 16.4085 142.692 16.1113 142.312 15.8965C 141.94 15.6745 141.339 15.4775 140.508 15.3057C 137.743 14.7256 136.361 13.5511 136.361 11.7822C 136.361 10.751 136.787 9.8916 137.64 9.2041C 138.499 8.50944 139.62 8.16211 141.002 8.16211C 142.477 8.16211 143.655 8.50944 144.536 9.2041C 145.424 9.89876 145.868 10.8011 145.868 11.9111L 142.764 11.9111C 142.764 11.4671 142.62 11.1019 142.334 10.8154C 142.048 10.5218 141.6 10.375 140.991 10.375C 140.468 10.375 140.064 10.4932 139.777 10.7295C 139.491 10.9658 139.348 11.2666 139.348 11.6318C 139.348 11.9756 139.509 12.2549 139.831 12.4697C 140.16 12.6774 140.712 12.86 141.485 13.0176C 142.259 13.168 142.91 13.3398 143.44 13.5332C 145.08 14.1348 145.9 15.1768 145.9 16.6592C 145.9 17.7191 145.446 18.5785 144.536 19.2373C 143.627 19.889 142.452 20.2148 141.013 20.2148C 140.039 20.2148 139.172 20.043 138.413 19.6992C 137.661 19.3483 137.07 18.8721 136.641 18.2705C 136.211 17.6618 135.996 17.0065 135.996 16.3047L 138.939 16.3047C 138.968 16.8561 139.172 17.2786 139.552 17.5723C 139.931 17.8659 140.44 18.0127 141.077 18.0127C 141.672 18.0127 142.119 17.9017 142.42 17.6797C 142.728 17.4505 142.882 17.1533 142.882 16.7881ZM 4.10352 34.377L 4.2002 35.6768C 5.02376 34.667 6.13737 34.1621 7.54102 34.1621C 9.03776 34.1621 10.0654 34.7529 10.624 35.9346C 11.4404 34.7529 12.6042 34.1621 14.1152 34.1621C 15.3757 34.1621 16.3138 34.5309 16.9297 35.2686C 17.5456 35.999 17.8535 37.1019 17.8535 38.5771L 17.8535 46L 14.7383 46L 14.7383 38.5879C 14.7383 37.929 14.6094 37.4492 14.3516 37.1484C 14.0938 36.8405 13.639 36.6865 12.9873 36.6865C 12.0563 36.6865 11.4118 37.1305 11.0537 38.0186L 11.0645 46L 7.95996 46L 7.95996 38.5986C 7.95996 37.9255 7.82747 37.4385 7.5625 37.1377C 7.29753 36.8369 6.84635 36.6865 6.20898 36.6865C 5.32812 36.6865 4.69076 37.0518 4.29688 37.7822L 4.29688 46L 1.19238 46L 1.19238 34.377L 4.10352 34.377ZM 26.9844 46C 26.8411 45.7207 26.7373 45.3734 26.6729 44.958C 25.9209 45.7959 24.9434 46.2148 23.7402 46.2148C 22.6016 46.2148 21.6562 45.8854 20.9043 45.2266C 20.1595 44.5677 19.7871 43.737 19.7871 42.7344C 19.7871 41.5026 20.2419 40.5573 21.1514 39.8984C 22.068 39.2396 23.3893 38.9066 25.1152 38.8994L 26.5439 38.8994L 26.5439 38.2334C 26.5439 37.6963 26.4043 37.2666 26.125 36.9443C 25.8529 36.6221 25.4196 36.4609 24.8252 36.4609C 24.3024 36.4609 23.8906 36.5863 23.5898 36.8369C 23.2962 37.0876 23.1494 37.4313 23.1494 37.8682L 20.0449 37.8682C 20.0449 37.195 20.2526 36.5719 20.668 35.999C 21.0833 35.4261 21.6706 34.9785 22.4297 34.6562C 23.1888 34.3268 24.041 34.1621 24.9863 34.1621C 26.4186 34.1621 27.5537 34.5238 28.3916 35.2471C 29.2367 35.9632 29.6592 36.973 29.6592 38.2764L 29.6592 43.3145C 29.6663 44.4173 29.8203 45.2516 30.1211 45.8174L 30.1211 46L 26.9844 46ZM 24.417 43.8408C 24.8753 43.8408 25.2979 43.7406 25.6846 43.54C 26.0713 43.3324 26.3577 43.0566 26.5439 42.7129L 26.5439 40.7148L 25.3838 40.7148C 23.8298 40.7148 23.0026 41.252 22.9023 42.3262L 22.8916 42.5088C 22.8916 42.8955 23.0277 43.2142 23.2998 43.4648C 23.5719 43.7155 23.9443 43.8408 24.417 43.8408ZM 36.2656 41.3379L 35.1484 42.4551L 35.1484 46L 32.0439 46L 32.0439 29.5L 35.1484 29.5L 35.1484 38.6416L 35.75 37.8682L 38.7256 34.377L 42.4531 34.377L 38.2529 39.2217L 42.8184 46L 39.252 46L 36.2656 41.3379ZM 48.9307 46.2148C 47.2262 46.2148 45.8369 45.6921 44.7627 44.6465C 43.6956 43.6009 43.1621 42.208 43.1621 40.4678L 43.1621 40.167C 43.1621 38.9997 43.3877 37.9577 43.8389 37.041C 44.29 36.1172 44.9274 35.4082 45.751 34.9141C 46.5817 34.4128 47.527 34.1621 48.5869 34.1621C 50.1768 34.1621 51.4264 34.6634 52.3359 35.666C 53.2526 36.6686 53.7109 38.0902 53.7109 39.9307L 53.7109 41.1982L 46.3096 41.1982C 46.4098 41.9574 46.7106 42.5661 47.2119 43.0244C 47.7204 43.4827 48.3613 43.7119 49.1348 43.7119C 50.3307 43.7119 51.2653 43.2786 51.9385 42.4121L 53.4639 44.1201C 52.9984 44.779 52.3682 45.2946 51.5732 45.667C 50.7783 46.0322 49.8975 46.2148 48.9307 46.2148ZM 48.5762 36.6758C 47.9603 36.6758 47.459 36.8835 47.0723 37.2988C 46.6927 37.7142 46.4492 38.3086 46.3418 39.082L 50.6602 39.082L 50.6602 38.835C 50.6458 38.1475 50.4596 37.6175 50.1016 37.2451C 49.7435 36.8656 49.235 36.6758 48.5762 36.6758ZM 63.873 34.377L 63.9697 35.6768C 64.7933 34.667 65.9069 34.1621 67.3105 34.1621C 68.8073 34.1621 69.835 34.7529 70.3936 35.9346C 71.21 34.7529 72.3737 34.1621 73.8848 34.1621C 75.1452 34.1621 76.0833 34.5309 76.6992 35.2686C 77.3151 35.999 77.623 37.1019 77.623 38.5771L 77.623 46L 74.5078 46L 74.5078 38.5879C 74.5078 37.929 74.3789 37.4492 74.1211 37.1484C 73.8633 36.8405 73.4085 36.6865 72.7568 36.6865C 71.8258 36.6865 71.1813 37.1305 70.8232 38.0186L 70.834 46L 67.7295 46L 67.7295 38.5986C 67.7295 37.9255 67.597 37.4385 67.332 37.1377C 67.0671 36.8369 66.6159 36.6865 65.9785 36.6865C 65.0977 36.6865 64.4603 37.0518 64.0664 37.7822L 64.0664 46L 60.9619 46L 60.9619 34.377L 63.873 34.377ZM 85.3682 46.2148C 83.6637 46.2148 82.2744 45.6921 81.2002 44.6465C 80.1331 43.6009 79.5996 42.208 79.5996 40.4678L 79.5996 40.167C 79.5996 38.9997 79.8252 37.9577 80.2764 37.041C 80.7275 36.1172 81.3649 35.4082 82.1885 34.9141C 83.0192 34.4128 83.9645 34.1621 85.0244 34.1621C 86.6143 34.1621 87.8639 34.6634 88.7734 35.666C 89.6901 36.6686 90.1484 38.0902 90.1484 39.9307L 90.1484 41.1982L 82.7471 41.1982C 82.8473 41.9574 83.1481 42.5661 83.6494 43.0244C 84.1579 43.4827 84.7988 43.7119 85.5723 43.7119C 86.7682 43.7119 87.7028 43.2786 88.376 42.4121L 89.9014 44.1201C 89.4359 44.779 88.8057 45.2946 88.0107 45.667C 87.2158 46.0322 86.335 46.2148 85.3682 46.2148ZM 85.0137 36.6758C 84.3978 36.6758 83.8965 36.8835 83.5098 37.2988C 83.1302 37.7142 82.8867 38.3086 82.7793 39.082L 87.0977 39.082L 87.0977 38.835C 87.0833 38.1475 86.8971 37.6175 86.5391 37.2451C 86.181 36.8656 85.6725 36.6758 85.0137 36.6758ZM 9.7002 61.6445C 10.5238 60.6562 11.5586 60.1621 12.8047 60.1621C 15.3255 60.1621 16.6038 61.6266 16.6396 64.5557L 16.6396 72L 13.5352 72L 13.5352 64.6416C 13.5352 63.9756 13.3919 63.485 13.1055 63.1699C 12.819 62.8477 12.3428 62.6865 11.6768 62.6865C 10.7673 62.6865 10.1084 63.0374 9.7002 63.7393L 9.7002 72L 6.5957 72L 6.5957 55.5L 9.7002 55.5L 9.7002 61.6445ZM 25.7168 72C 25.5736 71.7207 25.4697 71.3734 25.4053 70.958C 24.6533 71.7959 23.6758 72.2148 22.4727 72.2148C 21.334 72.2148 20.3887 71.8854 19.6367 71.2266C 18.8919 70.5677 18.5195 69.737 18.5195 68.7344C 18.5195 67.5026 18.9743 66.5573 19.8838 65.8984C 20.8005 65.2396 22.1217 64.9066 23.8477 64.8994L 25.2764 64.8994L 25.2764 64.2334C 25.2764 63.6963 25.1367 63.2666 24.8574 62.9443C 24.5853 62.6221 24.152 62.4609 23.5576 62.4609C 23.0348 62.4609 22.623 62.5863 22.3223 62.8369C 22.0286 63.0876 21.8818 63.4313 21.8818 63.8682L 18.7773 63.8682C 18.7773 63.195 18.985 62.5719 19.4004 61.999C 19.8158 61.4261 20.403 60.9785 21.1621 60.6562C 21.9212 60.3268 22.7734 60.1621 23.7188 60.1621C 25.151 60.1621 26.2861 60.5238 27.124 61.2471C 27.9691 61.9632 28.3916 62.973 28.3916 64.2764L 28.3916 69.3145C 28.3988 70.4173 28.5527 71.2516 28.8535 71.8174L 28.8535 72L 25.7168 72ZM 23.1494 69.8408C 23.6077 69.8408 24.0303 69.7406 24.417 69.54C 24.8037 69.3324 25.0902 69.0566 25.2764 68.7129L 25.2764 66.7148L 24.1162 66.7148C 22.5622 66.7148 21.735 67.252 21.6348 68.3262L 21.624 68.5088C 21.624 68.8955 21.7601 69.2142 22.0322 69.4648C 22.3044 69.7155 22.6768 69.8408 23.1494 69.8408ZM 41.2393 66.2959C 41.2393 68.0863 40.8311 69.5221 40.0146 70.6035C 39.2054 71.6777 38.1097 72.2148 36.7275 72.2148C 35.5531 72.2148 34.6042 71.8066 33.8809 70.9902L 33.8809 76.4688L 30.7764 76.4688L 30.7764 60.377L 33.6553 60.377L 33.7627 61.5156C 34.5146 60.6133 35.4958 60.1621 36.7061 60.1621C 38.1383 60.1621 39.252 60.6921 40.0469 61.752C 40.8418 62.8118 41.2393 64.2728 41.2393 66.1348L 41.2393 66.2959ZM 38.1348 66.0703C 38.1348 64.9889 37.9414 64.1546 37.5547 63.5674C 37.1751 62.9801 36.6201 62.6865 35.8896 62.6865C 34.9157 62.6865 34.2461 63.0589 33.8809 63.8037L 33.8809 68.5625C 34.2604 69.3288 34.9372 69.7119 35.9111 69.7119C 37.3936 69.7119 38.1348 68.498 38.1348 66.0703ZM 53.6357 66.2959C 53.6357 68.0863 53.2275 69.5221 52.4111 70.6035C 51.6019 71.6777 50.5062 72.2148 49.124 72.2148C 47.9495 72.2148 47.0007 71.8066 46.2773 70.9902L 46.2773 76.4688L 43.1729 76.4688L 43.1729 60.377L 46.0518 60.377L 46.1592 61.5156C 46.9111 60.6133 47.8923 60.1621 49.1025 60.1621C 50.5348 60.1621 51.6484 60.6921 52.4434 61.752C 53.2383 62.8118 53.6357 64.2728 53.6357 66.1348L 53.6357 66.2959ZM 50.5312 66.0703C 50.5312 64.9889 50.3379 64.1546 49.9512 63.5674C 49.5716 62.9801 49.0166 62.6865 48.2861 62.6865C 47.3122 62.6865 46.6426 63.0589 46.2773 63.8037L 46.2773 68.5625C 46.6569 69.3288 47.3337 69.7119 48.3076 69.7119C 49.79 69.7119 50.5312 68.498 50.5312 66.0703ZM 58.8457 72L 55.7305 72L 55.7305 60.377L 58.8457 60.377L 58.8457 72ZM 55.5479 57.3691C 55.5479 56.9036 55.7018 56.5205 56.0098 56.2197C 56.3249 55.9189 56.751 55.7686 57.2881 55.7686C 57.818 55.7686 58.2406 55.9189 58.5557 56.2197C 58.8708 56.5205 59.0283 56.9036 59.0283 57.3691C 59.0283 57.8418 58.8672 58.2285 58.5449 58.5293C 58.2298 58.8301 57.8109 58.9805 57.2881 58.9805C 56.7653 58.9805 56.3428 58.8301 56.0205 58.5293C 55.7054 58.2285 55.5479 57.8418 55.5479 57.3691ZM 66.7627 72.2148C 65.0583 72.2148 63.6689 71.6921 62.5947 70.6465C 61.5277 69.6009 60.9941 68.208 60.9941 66.4678L 60.9941 66.167C 60.9941 64.9997 61.2197 63.9577 61.6709 63.041C 62.1221 62.1172 62.7594 61.4082 63.583 60.9141C 64.4137 60.4128 65.359 60.1621 66.4189 60.1621C 68.0088 60.1621 69.2585 60.6634 70.168 61.666C 71.0846 62.6686 71.543 64.0902 71.543 65.9307L 71.543 67.1982L 64.1416 67.1982C 64.2419 67.9574 64.5426 68.5661 65.0439 69.0244C 65.5524 69.4827 66.1934 69.7119 66.9668 69.7119C 68.1628 69.7119 69.0973 69.2786 69.7705 68.4121L 71.2959 70.1201C 70.8304 70.779 70.2002 71.2946 69.4053 71.667C 68.6104 72.0322 67.7295 72.2148 66.7627 72.2148ZM 66.4082 62.6758C 65.7923 62.6758 65.291 62.8835 64.9043 63.2988C 64.5247 63.7142 64.2812 64.3086 64.1738 65.082L 68.4922 65.082L 68.4922 64.835C 68.4779 64.1475 68.2917 63.6175 67.9336 63.2451C 67.5755 62.8656 67.0671 62.6758 66.4082 62.6758ZM 79.8467 63.2881C 79.4242 63.2308 79.0518 63.2021 78.7295 63.2021C 77.555 63.2021 76.7852 63.5996 76.4199 64.3945L 76.4199 72L 73.3154 72L 73.3154 60.377L 76.248 60.377L 76.334 61.7627C 76.957 60.6956 77.82 60.1621 78.9229 60.1621C 79.2666 60.1621 79.5889 60.2087 79.8896 60.3018L 79.8467 63.2881Z"/>
</defs>
</svg>
