<svg width="64" height="65" viewBox="0 0 64 65" version="1.1" xmlns="http://www.w3.org/2000/svg" xmlns:xlink="http://www.w3.org/1999/xlink">
<title>book</title>
<desc>Created using Figma</desc>
<g id="Canvas" transform="translate(236 2185)">
<g id="book">
<use xlink:href="#path0_fill" transform="matrix(0.905737 0.423839 -0.419435 0.907785 -214.99 -2189)" fill="#00B5D6"/>
</g>
</g>
<defs>
<path id="path0_fill" d="M 51.7009 11.6612L 48.7465 11.6612L 48.7465 10.2036C 48.7465 9.39837 48.0854 8.74592 47.2694 8.74592L 41.8298 8.74592C 39.7169 8.74592 37.6294 8.41183 35.6251 7.7518C 34.6886 7.44395 33.7137 7.28827 32.7275 7.28827C 30.6589 7.28827 28.699 7.96695 27.0954 9.20596C 24.1765 3.62781 18.2873 0 11.8173 0C 11.0014 0 10.3402 0.652446 10.3402 1.45765L 10.3402 8.74592L 5.90867 8.74592C 5.09268 8.74592 4.4315 9.39837 4.4315 10.2036L 4.4315 11.6612L 1.47717 11.6612C 0.66118 11.6612 0 12.3137 0 13.1189L 0 49.5602C 0 50.3654 0.66118 51.0179 1.47717 51.0179L 22.1575 51.0179C 22.1575 51.8231 22.8187 52.4755 23.6347 52.4755L 29.5434 52.4755C 30.3593 52.4755 31.0205 51.8231 31.0205 51.0179L 51.7009 51.0179C 52.5169 51.0179 53.178 50.3654 53.178 49.5602L 53.178 13.1189C 53.178 12.3137 52.5169 11.6612 51.7009 11.6612ZM 28.0662 12.2653L 28.3362 11.9982C 29.5091 10.8409 31.069 10.2036 32.7275 10.2036C 33.3958 10.2036 34.057 10.3097 34.6916 10.5178C 36.9971 11.2764 39.399 11.6612 41.8298 11.6612L 45.7922 11.6612L 45.7922 42.272L 41.8298 42.272C 39.7169 42.272 37.6294 41.9379 35.6251 41.2778C 34.6886 40.9706 33.7137 40.8143 32.7275 40.8143C 31.0613 40.8143 29.463 41.2504 28.0662 42.0673L 28.0662 12.2653ZM 13.2945 2.99169C 18.5769 3.53918 23.188 6.99207 25.1118 11.9434L 25.1118 39.7555C 22.2048 36.2658 17.9553 33.989 13.2945 33.5896L 13.2945 2.99169ZM 7.38584 11.6612L 10.3402 11.6612L 10.3402 34.9837C 10.3402 35.7889 11.0014 36.4413 11.8173 36.4413C 15.8736 36.4413 19.6587 38.1602 22.3076 40.9991C 20.7589 40.686 19.0886 40.7735 17.5523 41.2784C 15.5481 41.9379 13.4605 42.272 11.3476 42.272L 7.38584 42.272L 7.38584 11.6612ZM 50.2237 48.1026L 29.5434 48.1026C 28.7274 48.1026 28.0662 48.755 28.0662 49.5602L 25.1118 49.5602C 25.1118 48.755 24.4507 48.1026 23.6347 48.1026L 2.95434 48.1026L 2.95434 14.5765L 4.4315 14.5765L 4.4315 43.7296C 4.4315 44.5348 5.09268 45.1873 5.90867 45.1873L 11.3482 45.1873C 13.779 45.1873 16.1809 44.8024 18.487 44.0445C 19.1216 43.8357 19.7822 43.7296 20.4505 43.7296C 22.1091 43.7296 23.6684 44.3669 24.8418 45.5243L 25.5444 46.2175C 26.1098 46.7755 27.0658 46.7773 27.6331 46.2175L 28.3356 45.5243C 29.5091 44.3669 31.069 43.7296 32.7275 43.7296C 33.3958 43.7296 34.057 43.8357 34.6916 44.0439C 36.9971 44.8024 39.399 45.1873 41.8298 45.1873L 47.2694 45.1873C 48.0854 45.1873 48.7465 44.5348 48.7465 43.7296L 48.7465 14.5765L 50.2237 14.5765L 50.2237 48.1026Z"/>
</defs>
</svg>
