<svg width="287" height="244" viewBox="0 0 287 244" version="1.1" xmlns="http://www.w3.org/2000/svg" xmlns:xlink="http://www.w3.org/1999/xlink">
<title>Group</title>
<desc>Created using Figma</desc>
<g id="Canvas" transform="translate(-388 1988)">
<g id="Group">
<g id="Group">
<g id="I love my library because of the sense ofmunity that provides">
<use xlink:href="#path0_fill" transform="translate(461.087 -1935.53)" fill="#00B5D6"/>
</g>
<g id="Vector">
<use xlink:href="#path1_fill" transform="translate(388 -1988)" fill="#00B5D6"/>
</g>
</g>
</g>
</g>
<defs>
<path id="path0_fill" d="M 4.82324 20L 1.60059 20L 1.60059 4.35938L 4.82324 4.35938L 4.82324 20ZM 16.3711 20L 13.2559 20L 13.2559 3.5L 16.3711 3.5L 16.3711 20ZM 18.4551 14.0811C 18.4551 12.9281 18.6771 11.9004 19.1211 10.998C 19.5651 10.0957 20.2025 9.39746 21.0332 8.90332C 21.8711 8.40918 22.8415 8.16211 23.9443 8.16211C 25.5127 8.16211 26.791 8.64193 27.7793 9.60156C 28.7747 10.5612 29.3298 11.8646 29.4443 13.5117L 29.4658 14.3066C 29.4658 16.0898 28.9681 17.5221 27.9727 18.6035C 26.9772 19.6777 25.6416 20.2148 23.9658 20.2148C 22.29 20.2148 20.9508 19.6777 19.9482 18.6035C 18.9528 17.5293 18.4551 16.0684 18.4551 14.2207L 18.4551 14.0811ZM 21.5596 14.3066C 21.5596 15.4095 21.7673 16.2546 22.1826 16.8418C 22.598 17.4219 23.1924 17.7119 23.9658 17.7119C 24.7178 17.7119 25.305 17.4255 25.7275 16.8525C 26.1501 16.2725 26.3613 15.3486 26.3613 14.0811C 26.3613 12.9997 26.1501 12.1618 25.7275 11.5674C 25.305 10.973 24.7106 10.6758 23.9443 10.6758C 23.1852 10.6758 22.598 10.973 22.1826 11.5674C 21.7673 12.1546 21.5596 13.0677 21.5596 14.3066ZM 35.5566 16.208L 37.7158 8.37695L 40.96 8.37695L 37.0391 20L 34.0742 20L 30.1533 8.37695L 33.3975 8.37695L 35.5566 16.208ZM 47.5342 20.2148C 45.8298 20.2148 44.4404 19.6921 43.3662 18.6465C 42.2992 17.6009 41.7656 16.208 41.7656 14.4678L 41.7656 14.167C 41.7656 12.9997 41.9912 11.9577 42.4424 11.041C 42.8936 10.1172 43.5309 9.4082 44.3545 8.91406C 45.1852 8.41276 46.1305 8.16211 47.1904 8.16211C 48.7803 8.16211 50.0299 8.66341 50.9395 9.66602C 51.8561 10.6686 52.3145 12.0902 52.3145 13.9307L 52.3145 15.1982L 44.9131 15.1982C 45.0133 15.9574 45.3141 16.5661 45.8154 17.0244C 46.3239 17.4827 46.9648 17.7119 47.7383 17.7119C 48.9342 17.7119 49.8688 17.2786 50.542 16.4121L 52.0674 18.1201C 51.6019 18.779 50.9717 19.2946 50.1768 19.667C 49.3818 20.0322 48.501 20.2148 47.5342 20.2148ZM 47.1797 10.6758C 46.5638 10.6758 46.0625 10.8835 45.6758 11.2988C 45.2962 11.7142 45.0527 12.3086 44.9453 13.082L 49.2637 13.082L 49.2637 12.835C 49.2493 12.1475 49.0632 11.6175 48.7051 11.2451C 48.347 10.8656 47.8385 10.6758 47.1797 10.6758ZM 62.4766 8.37695L 62.5732 9.67676C 63.3968 8.66699 64.5104 8.16211 65.9141 8.16211C 67.4108 8.16211 68.4385 8.75293 68.9971 9.93457C 69.8135 8.75293 70.9772 8.16211 72.4883 8.16211C 73.7487 8.16211 74.6868 8.53092 75.3027 9.26855C 75.9186 9.99902 76.2266 11.1019 76.2266 12.5771L 76.2266 20L 73.1113 20L 73.1113 12.5879C 73.1113 11.929 72.9824 11.4492 72.7246 11.1484C 72.4668 10.8405 72.012 10.6865 71.3604 10.6865C 70.4294 10.6865 69.7848 11.1305 69.4268 12.0186L 69.4375 20L 66.333 20L 66.333 12.5986C 66.333 11.9255 66.2005 11.4385 65.9355 11.1377C 65.6706 10.8369 65.2194 10.6865 64.582 10.6865C 63.7012 10.6865 63.0638 11.0518 62.6699 11.7822L 62.6699 20L 59.5654 20L 59.5654 8.37695L 62.4766 8.37695ZM 82.9619 15.6064L 85.1104 8.37695L 88.4404 8.37695L 83.7676 21.8047L 83.5098 22.417C 82.8151 23.9352 81.6693 24.6943 80.0723 24.6943C 79.6211 24.6943 79.1628 24.6263 78.6973 24.4902L 78.6973 22.1377L 79.1699 22.1484C 79.7572 22.1484 80.194 22.0589 80.4805 21.8799C 80.7741 21.7008 81.0033 21.4036 81.168 20.9883L 81.5332 20.0322L 77.4619 8.37695L 80.8027 8.37695L 82.9619 15.6064ZM 4.46875 46L 1.35352 46L 1.35352 29.5L 4.46875 29.5L 4.46875 46ZM 10.3125 46L 7.19727 46L 7.19727 34.377L 10.3125 34.377L 10.3125 46ZM 7.01465 31.3691C 7.01465 30.9036 7.16862 30.5205 7.47656 30.2197C 7.79167 29.9189 8.21777 29.7686 8.75488 29.7686C 9.28483 29.7686 9.70736 29.9189 10.0225 30.2197C 10.3376 30.5205 10.4951 30.9036 10.4951 31.3691C 10.4951 31.8418 10.334 32.2285 10.0117 32.5293C 9.69661 32.8301 9.27767 32.9805 8.75488 32.9805C 8.2321 32.9805 7.80957 32.8301 7.4873 32.5293C 7.1722 32.2285 7.01465 31.8418 7.01465 31.3691ZM 23.3535 40.2959C 23.3535 42.1579 22.9561 43.6117 22.1611 44.6572C 21.3662 45.6956 20.2562 46.2148 18.8311 46.2148C 17.5706 46.2148 16.5645 45.7314 15.8125 44.7646L 15.6729 46L 12.8799 46L 12.8799 29.5L 15.9844 29.5L 15.9844 35.4189C 16.7005 34.5811 17.6423 34.1621 18.8096 34.1621C 20.2275 34.1621 21.3376 34.6849 22.1396 35.7305C 22.9489 36.7689 23.3535 38.2334 23.3535 40.124L 23.3535 40.2959ZM 20.249 40.0703C 20.249 38.8958 20.0628 38.04 19.6904 37.5029C 19.318 36.9587 18.763 36.6865 18.0254 36.6865C 17.0371 36.6865 16.3568 37.0911 15.9844 37.9004L 15.9844 42.4873C 16.3639 43.3037 17.0514 43.7119 18.0469 43.7119C 19.0495 43.7119 19.7083 43.2178 20.0234 42.2295C 20.1738 41.7568 20.249 41.0371 20.249 40.0703ZM 31.8076 37.2881C 31.3851 37.2308 31.0127 37.2021 30.6904 37.2021C 29.516 37.2021 28.7461 37.5996 28.3809 38.3945L 28.3809 46L 25.2764 46L 25.2764 34.377L 28.209 34.377L 28.2949 35.7627C 28.918 34.6956 29.7809 34.1621 30.8838 34.1621C 31.2275 34.1621 31.5498 34.2087 31.8506 34.3018L 31.8076 37.2881ZM 39.7246 46C 39.5814 45.7207 39.4775 45.3734 39.4131 44.958C 38.6611 45.7959 37.6836 46.2148 36.4805 46.2148C 35.3418 46.2148 34.3965 45.8854 33.6445 45.2266C 32.8997 44.5677 32.5273 43.737 32.5273 42.7344C 32.5273 41.5026 32.9821 40.5573 33.8916 39.8984C 34.8083 39.2396 36.1296 38.9066 37.8555 38.8994L 39.2842 38.8994L 39.2842 38.2334C 39.2842 37.6963 39.1445 37.2666 38.8652 36.9443C 38.5931 36.6221 38.1598 36.4609 37.5654 36.4609C 37.0426 36.4609 36.6309 36.5863 36.3301 36.8369C 36.0365 37.0876 35.8896 37.4313 35.8896 37.8682L 32.7852 37.8682C 32.7852 37.195 32.9928 36.5719 33.4082 35.999C 33.8236 35.4261 34.4108 34.9785 35.1699 34.6562C 35.929 34.3268 36.7812 34.1621 37.7266 34.1621C 39.1589 34.1621 40.2939 34.5238 41.1318 35.2471C 41.9769 35.9632 42.3994 36.973 42.3994 38.2764L 42.3994 43.3145C 42.4066 44.4173 42.5605 45.2516 42.8613 45.8174L 42.8613 46L 39.7246 46ZM 37.1572 43.8408C 37.6156 43.8408 38.0381 43.7406 38.4248 43.54C 38.8115 43.3324 39.098 43.0566 39.2842 42.7129L 39.2842 40.7148L 38.124 40.7148C 36.57 40.7148 35.7428 41.252 35.6426 42.3262L 35.6318 42.5088C 35.6318 42.8955 35.7679 43.2142 36.04 43.4648C 36.3122 43.7155 36.6846 43.8408 37.1572 43.8408ZM 51.3154 37.2881C 50.8929 37.2308 50.5205 37.2021 50.1982 37.2021C 49.0238 37.2021 48.2539 37.5996 47.8887 38.3945L 47.8887 46L 44.7842 46L 44.7842 34.377L 47.7168 34.377L 47.8027 35.7627C 48.4258 34.6956 49.2887 34.1621 50.3916 34.1621C 50.7354 34.1621 51.0576 34.2087 51.3584 34.3018L 51.3154 37.2881ZM 57.3525 41.6064L 59.501 34.377L 62.8311 34.377L 58.1582 47.8047L 57.9004 48.417C 57.2057 49.9352 56.0599 50.6943 54.4629 50.6943C 54.0117 50.6943 53.5534 50.6263 53.0879 50.4902L 53.0879 48.1377L 53.5605 48.1484C 54.1478 48.1484 54.5846 48.0589 54.8711 47.8799C 55.1647 47.7008 55.3939 47.4036 55.5586 46.9883L 55.9238 46.0322L 51.8525 34.377L 55.1934 34.377L 57.3525 41.6064ZM 80.0078 40.2959C 80.0078 42.1579 79.6104 43.6117 78.8154 44.6572C 78.0205 45.6956 76.9105 46.2148 75.4854 46.2148C 74.2249 46.2148 73.2188 45.7314 72.4668 44.7646L 72.3271 46L 69.5342 46L 69.5342 29.5L 72.6387 29.5L 72.6387 35.4189C 73.3548 34.5811 74.2965 34.1621 75.4639 34.1621C 76.8818 34.1621 77.9919 34.6849 78.7939 35.7305C 79.6032 36.7689 80.0078 38.2334 80.0078 40.124L 80.0078 40.2959ZM 76.9033 40.0703C 76.9033 38.8958 76.7171 38.04 76.3447 37.5029C 75.9723 36.9587 75.4173 36.6865 74.6797 36.6865C 73.6914 36.6865 73.0111 37.0911 72.6387 37.9004L 72.6387 42.4873C 73.0182 43.3037 73.7057 43.7119 74.7012 43.7119C 75.7038 43.7119 76.3626 43.2178 76.6777 42.2295C 76.8281 41.7568 76.9033 41.0371 76.9033 40.0703ZM 87.2803 46.2148C 85.5758 46.2148 84.1865 45.6921 83.1123 44.6465C 82.0452 43.6009 81.5117 42.208 81.5117 40.4678L 81.5117 40.167C 81.5117 38.9997 81.7373 37.9577 82.1885 37.041C 82.6396 36.1172 83.277 35.4082 84.1006 34.9141C 84.9313 34.4128 85.8766 34.1621 86.9365 34.1621C 88.5264 34.1621 89.776 34.6634 90.6855 35.666C 91.6022 36.6686 92.0605 38.0902 92.0605 39.9307L 92.0605 41.1982L 84.6592 41.1982C 84.7594 41.9574 85.0602 42.5661 85.5615 43.0244C 86.07 43.4827 86.7109 43.7119 87.4844 43.7119C 88.6803 43.7119 89.6149 43.2786 90.2881 42.4121L 91.8135 44.1201C 91.348 44.779 90.7178 45.2946 89.9229 45.667C 89.1279 46.0322 88.2471 46.2148 87.2803 46.2148ZM 86.9258 36.6758C 86.3099 36.6758 85.8086 36.8835 85.4219 37.2988C 85.0423 37.7142 84.7988 38.3086 84.6914 39.082L 89.0098 39.082L 89.0098 38.835C 88.9954 38.1475 88.8092 37.6175 88.4512 37.2451C 88.0931 36.8656 87.5846 36.6758 86.9258 36.6758ZM 98.667 43.7119C 99.2399 43.7119 99.7054 43.5544 100.063 43.2393C 100.422 42.9242 100.608 42.5052 100.622 41.9824L 103.533 41.9824C 103.526 42.7702 103.311 43.4935 102.889 44.1523C 102.466 44.804 101.886 45.3125 101.148 45.6777C 100.418 46.0358 99.6087 46.2148 98.7207 46.2148C 97.0592 46.2148 95.7487 45.6885 94.7891 44.6357C 93.8294 43.5758 93.3496 42.1149 93.3496 40.2529L 93.3496 40.0488C 93.3496 38.2585 93.8258 36.8298 94.7783 35.7627C 95.7308 34.6956 97.0378 34.1621 98.6992 34.1621C 100.153 34.1621 101.317 34.5775 102.19 35.4082C 103.071 36.2318 103.519 37.3311 103.533 38.7061L 100.622 38.7061C 100.608 38.1045 100.422 37.6175 100.063 37.2451C 99.7054 36.8656 99.2327 36.6758 98.6455 36.6758C 97.9222 36.6758 97.3743 36.9408 97.002 37.4707C 96.6367 37.9935 96.4541 38.8457 96.4541 40.0273L 96.4541 40.3496C 96.4541 41.5456 96.6367 42.4049 97.002 42.9277C 97.3672 43.4505 97.9222 43.7119 98.667 43.7119ZM 112.041 46C 111.898 45.7207 111.794 45.3734 111.729 44.958C 110.978 45.7959 110 46.2148 108.797 46.2148C 107.658 46.2148 106.713 45.8854 105.961 45.2266C 105.216 44.5677 104.844 43.737 104.844 42.7344C 104.844 41.5026 105.299 40.5573 106.208 39.8984C 107.125 39.2396 108.446 38.9066 110.172 38.8994L 111.601 38.8994L 111.601 38.2334C 111.601 37.6963 111.461 37.2666 111.182 36.9443C 110.91 36.6221 110.476 36.4609 109.882 36.4609C 109.359 36.4609 108.947 36.5863 108.646 36.8369C 108.353 37.0876 108.206 37.4313 108.206 37.8682L 105.102 37.8682C 105.102 37.195 105.309 36.5719 105.725 35.999C 106.14 35.4261 106.727 34.9785 107.486 34.6562C 108.245 34.3268 109.098 34.1621 110.043 34.1621C 111.475 34.1621 112.61 34.5238 113.448 35.2471C 114.293 35.9632 114.716 36.973 114.716 38.2764L 114.716 43.3145C 114.723 44.4173 114.877 45.2516 115.178 45.8174L 115.178 46L 112.041 46ZM 109.474 43.8408C 109.932 43.8408 110.354 43.7406 110.741 43.54C 111.128 43.3324 111.414 43.0566 111.601 42.7129L 111.601 40.7148L 110.44 40.7148C 108.886 40.7148 108.059 41.252 107.959 42.3262L 107.948 42.5088C 107.948 42.8955 108.084 43.2142 108.356 43.4648C 108.629 43.7155 109.001 43.8408 109.474 43.8408ZM 124.062 44.8184C 123.295 45.7493 122.235 46.2148 120.882 46.2148C 119.636 46.2148 118.683 45.8568 118.024 45.1406C 117.373 44.4245 117.04 43.3753 117.025 41.9932L 117.025 34.377L 120.13 34.377L 120.13 41.8857C 120.13 43.096 120.681 43.7012 121.784 43.7012C 122.837 43.7012 123.56 43.3359 123.954 42.6055L 123.954 34.377L 127.069 34.377L 127.069 46L 124.147 46L 124.062 44.8184ZM 135.706 42.7881C 135.706 42.4085 135.516 42.1113 135.137 41.8965C 134.764 41.6745 134.163 41.4775 133.332 41.3057C 130.568 40.7256 129.186 39.5511 129.186 37.7822C 129.186 36.751 129.612 35.8916 130.464 35.2041C 131.323 34.5094 132.444 34.1621 133.826 34.1621C 135.301 34.1621 136.479 34.5094 137.36 35.2041C 138.248 35.8988 138.692 36.8011 138.692 37.9111L 135.588 37.9111C 135.588 37.4671 135.445 37.1019 135.158 36.8154C 134.872 36.5218 134.424 36.375 133.815 36.375C 133.293 36.375 132.888 36.4932 132.602 36.7295C 132.315 36.9658 132.172 37.2666 132.172 37.6318C 132.172 37.9756 132.333 38.2549 132.655 38.4697C 132.985 38.6774 133.536 38.86 134.31 39.0176C 135.083 39.168 135.735 39.3398 136.265 39.5332C 137.905 40.1348 138.725 41.1768 138.725 42.6592C 138.725 43.7191 138.27 44.5785 137.36 45.2373C 136.451 45.889 135.276 46.2148 133.837 46.2148C 132.863 46.2148 131.996 46.043 131.237 45.6992C 130.485 45.3483 129.895 44.8721 129.465 44.2705C 129.035 43.6618 128.82 43.0065 128.82 42.3047L 131.764 42.3047C 131.792 42.8561 131.996 43.2786 132.376 43.5723C 132.756 43.8659 133.264 44.0127 133.901 44.0127C 134.496 44.0127 134.943 43.9017 135.244 43.6797C 135.552 43.4505 135.706 43.1533 135.706 42.7881ZM 146.083 46.2148C 144.379 46.2148 142.989 45.6921 141.915 44.6465C 140.848 43.6009 140.314 42.208 140.314 40.4678L 140.314 40.167C 140.314 38.9997 140.54 37.9577 140.991 37.041C 141.442 36.1172 142.08 35.4082 142.903 34.9141C 143.734 34.4128 144.679 34.1621 145.739 34.1621C 147.329 34.1621 148.579 34.6634 149.488 35.666C 150.405 36.6686 150.863 38.0902 150.863 39.9307L 150.863 41.1982L 143.462 41.1982C 143.562 41.9574 143.863 42.5661 144.364 43.0244C 144.873 43.4827 145.514 43.7119 146.287 43.7119C 147.483 43.7119 148.418 43.2786 149.091 42.4121L 150.616 44.1201C 150.151 44.779 149.521 45.2946 148.726 45.667C 147.931 46.0322 147.05 46.2148 146.083 46.2148ZM 145.729 36.6758C 145.113 36.6758 144.611 36.8835 144.225 37.2988C 143.845 37.7142 143.602 38.3086 143.494 39.082L 147.812 39.082L 147.812 38.835C 147.798 38.1475 147.612 37.6175 147.254 37.2451C 146.896 36.8656 146.387 36.6758 145.729 36.6758ZM 4.82324 72L 1.60059 72L 1.60059 56.3594L 4.82324 56.3594L 4.82324 72ZM 17.9287 69.7119C 18.5016 69.7119 18.9671 69.5544 19.3252 69.2393C 19.6833 68.9242 19.8695 68.5052 19.8838 67.9824L 22.7949 67.9824C 22.7878 68.7702 22.5729 69.4935 22.1504 70.1523C 21.7279 70.804 21.1478 71.3125 20.4102 71.6777C 19.6797 72.0358 18.8704 72.2148 17.9824 72.2148C 16.321 72.2148 15.0104 71.6885 14.0508 70.6357C 13.0911 69.5758 12.6113 68.1149 12.6113 66.2529L 12.6113 66.0488C 12.6113 64.2585 13.0876 62.8298 14.04 61.7627C 14.9925 60.6956 16.2995 60.1621 17.9609 60.1621C 19.4147 60.1621 20.5785 60.5775 21.4521 61.4082C 22.333 62.2318 22.7806 63.3311 22.7949 64.7061L 19.8838 64.7061C 19.8695 64.1045 19.6833 63.6175 19.3252 63.2451C 18.9671 62.8656 18.4945 62.6758 17.9072 62.6758C 17.1839 62.6758 16.6361 62.9408 16.2637 63.4707C 15.8984 63.9935 15.7158 64.8457 15.7158 66.0273L 15.7158 66.3496C 15.7158 67.5456 15.8984 68.4049 16.2637 68.9277C 16.6289 69.4505 17.1839 69.7119 17.9287 69.7119ZM 31.3027 72C 31.1595 71.7207 31.0557 71.3734 30.9912 70.958C 30.2393 71.7959 29.2617 72.2148 28.0586 72.2148C 26.9199 72.2148 25.9746 71.8854 25.2227 71.2266C 24.4779 70.5677 24.1055 69.737 24.1055 68.7344C 24.1055 67.5026 24.5602 66.5573 25.4697 65.8984C 26.3864 65.2396 27.7077 64.9066 29.4336 64.8994L 30.8623 64.8994L 30.8623 64.2334C 30.8623 63.6963 30.7227 63.2666 30.4434 62.9443C 30.1712 62.6221 29.738 62.4609 29.1436 62.4609C 28.6208 62.4609 28.209 62.5863 27.9082 62.8369C 27.6146 63.0876 27.4678 63.4313 27.4678 63.8682L 24.3633 63.8682C 24.3633 63.195 24.571 62.5719 24.9863 61.999C 25.4017 61.4261 25.9889 60.9785 26.748 60.6562C 27.5072 60.3268 28.3594 60.1621 29.3047 60.1621C 30.737 60.1621 31.8721 60.5238 32.71 61.2471C 33.555 61.9632 33.9775 62.973 33.9775 64.2764L 33.9775 69.3145C 33.9847 70.4173 34.1387 71.2516 34.4395 71.8174L 34.4395 72L 31.3027 72ZM 28.7354 69.8408C 29.1937 69.8408 29.6162 69.7406 30.0029 69.54C 30.3896 69.3324 30.6761 69.0566 30.8623 68.7129L 30.8623 66.7148L 29.7021 66.7148C 28.1481 66.7148 27.321 67.252 27.2207 68.3262L 27.21 68.5088C 27.21 68.8955 27.346 69.2142 27.6182 69.4648C 27.8903 69.7155 28.2627 69.8408 28.7354 69.8408ZM 39.2197 60.377L 39.3164 61.7197C 40.1471 60.6813 41.2607 60.1621 42.6572 60.1621C 43.889 60.1621 44.8057 60.5238 45.4072 61.2471C 46.0088 61.9704 46.3167 63.0518 46.3311 64.4912L 46.3311 72L 43.2266 72L 43.2266 64.5664C 43.2266 63.9076 43.0833 63.4313 42.7969 63.1377C 42.5104 62.8369 42.0342 62.6865 41.3682 62.6865C 40.4945 62.6865 39.8392 63.0589 39.4023 63.8037L 39.4023 72L 36.2979 72L 36.2979 60.377L 39.2197 60.377ZM 64.6465 66.2959C 64.6465 68.1579 64.249 69.6117 63.4541 70.6572C 62.6592 71.6956 61.5492 72.2148 60.124 72.2148C 58.8636 72.2148 57.8574 71.7314 57.1055 70.7646L 56.9658 72L 54.1729 72L 54.1729 55.5L 57.2773 55.5L 57.2773 61.4189C 57.9935 60.5811 58.9352 60.1621 60.1025 60.1621C 61.5205 60.1621 62.6305 60.6849 63.4326 61.7305C 64.2419 62.7689 64.6465 64.2334 64.6465 66.124L 64.6465 66.2959ZM 61.542 66.0703C 61.542 64.8958 61.3558 64.04 60.9834 63.5029C 60.611 62.9587 60.056 62.6865 59.3184 62.6865C 58.3301 62.6865 57.6497 63.0911 57.2773 63.9004L 57.2773 68.4873C 57.6569 69.3037 58.3444 69.7119 59.3398 69.7119C 60.3424 69.7119 61.0013 69.2178 61.3164 68.2295C 61.4668 67.7568 61.542 67.0371 61.542 66.0703ZM 66.0859 66.0811C 66.0859 64.9281 66.3079 63.9004 66.752 62.998C 67.196 62.0957 67.8333 61.3975 68.6641 60.9033C 69.502 60.4092 70.4723 60.1621 71.5752 60.1621C 73.1436 60.1621 74.4219 60.6419 75.4102 61.6016C 76.4056 62.5612 76.9606 63.8646 77.0752 65.5117L 77.0967 66.3066C 77.0967 68.0898 76.599 69.5221 75.6035 70.6035C 74.6081 71.6777 73.2725 72.2148 71.5967 72.2148C 69.9209 72.2148 68.5817 71.6777 67.5791 70.6035C 66.5837 69.5293 66.0859 68.0684 66.0859 66.2207L 66.0859 66.0811ZM 69.1904 66.3066C 69.1904 67.4095 69.3981 68.2546 69.8135 68.8418C 70.2288 69.4219 70.8232 69.7119 71.5967 69.7119C 72.3486 69.7119 72.9359 69.4255 73.3584 68.8525C 73.7809 68.2725 73.9922 67.3486 73.9922 66.0811C 73.9922 64.9997 73.7809 64.1618 73.3584 63.5674C 72.9359 62.973 72.3415 62.6758 71.5752 62.6758C 70.8161 62.6758 70.2288 62.973 69.8135 63.5674C 69.3981 64.1546 69.1904 65.0677 69.1904 66.3066ZM 85.54 63.2881C 85.1175 63.2308 84.7451 63.2021 84.4229 63.2021C 83.2484 63.2021 82.4785 63.5996 82.1133 64.3945L 82.1133 72L 79.0088 72L 79.0088 60.377L 81.9414 60.377L 82.0273 61.7627C 82.6504 60.6956 83.5133 60.1621 84.6162 60.1621C 84.96 60.1621 85.2822 60.2087 85.583 60.3018L 85.54 63.2881ZM 93.5752 63.2881C 93.1527 63.2308 92.7803 63.2021 92.458 63.2021C 91.2835 63.2021 90.5137 63.5996 90.1484 64.3945L 90.1484 72L 87.0439 72L 87.0439 60.377L 89.9766 60.377L 90.0625 61.7627C 90.6855 60.6956 91.5485 60.1621 92.6514 60.1621C 92.9951 60.1621 93.3174 60.2087 93.6182 60.3018L 93.5752 63.2881ZM 94.209 66.0811C 94.209 64.9281 94.431 63.9004 94.875 62.998C 95.319 62.0957 95.9564 61.3975 96.7871 60.9033C 97.625 60.4092 98.5954 60.1621 99.6982 60.1621C 101.267 60.1621 102.545 60.6419 103.533 61.6016C 104.529 62.5612 105.084 63.8646 105.198 65.5117L 105.22 66.3066C 105.22 68.0898 104.722 69.5221 103.727 70.6035C 102.731 71.6777 101.396 72.2148 99.7197 72.2148C 98.0439 72.2148 96.7048 71.6777 95.7021 70.6035C 94.7067 69.5293 94.209 68.0684 94.209 66.2207L 94.209 66.0811ZM 97.3135 66.3066C 97.3135 67.4095 97.5212 68.2546 97.9365 68.8418C 98.3519 69.4219 98.9463 69.7119 99.7197 69.7119C 100.472 69.7119 101.059 69.4255 101.481 68.8525C 101.904 68.2725 102.115 67.3486 102.115 66.0811C 102.115 64.9997 101.904 64.1618 101.481 63.5674C 101.059 62.973 100.465 62.6758 99.6982 62.6758C 98.9391 62.6758 98.3519 62.973 97.9365 63.5674C 97.5212 64.1546 97.3135 65.0677 97.3135 66.3066ZM 117.24 67.7783L 118.766 60.377L 121.763 60.377L 118.798 72L 116.198 72L 113.996 64.6846L 111.794 72L 109.205 72L 106.24 60.377L 109.237 60.377L 110.752 67.7676L 112.879 60.377L 115.124 60.377L 117.24 67.7783ZM 11.666 92.2959C 11.666 94.1579 11.2686 95.6117 10.4736 96.6572C 9.67871 97.6956 8.56868 98.2148 7.14355 98.2148C 5.88314 98.2148 4.87695 97.7314 4.125 96.7646L 3.98535 98L 1.19238 98L 1.19238 81.5L 4.29688 81.5L 4.29688 87.4189C 5.01302 86.5811 5.95475 86.1621 7.12207 86.1621C 8.54004 86.1621 9.65007 86.6849 10.4521 87.7305C 11.2614 88.7689 11.666 90.2334 11.666 92.124L 11.666 92.2959ZM 8.56152 92.0703C 8.56152 90.8958 8.37533 90.04 8.00293 89.5029C 7.63053 88.9587 7.07552 88.6865 6.33789 88.6865C 5.34961 88.6865 4.66927 89.0911 4.29688 89.9004L 4.29688 94.4873C 4.67643 95.3037 5.36393 95.7119 6.35938 95.7119C 7.36198 95.7119 8.02083 95.2178 8.33594 94.2295C 8.48633 93.7568 8.56152 93.0371 8.56152 92.0703ZM 13.1055 92.0811C 13.1055 90.9281 13.3275 89.9004 13.7715 88.998C 14.2155 88.0957 14.8529 87.3975 15.6836 86.9033C 16.5215 86.4092 17.4919 86.1621 18.5947 86.1621C 20.1631 86.1621 21.4414 86.6419 22.4297 87.6016C 23.4251 88.5612 23.9801 89.8646 24.0947 91.5117L 24.1162 92.3066C 24.1162 94.0898 23.6185 95.5221 22.623 96.6035C 21.6276 97.6777 20.292 98.2148 18.6162 98.2148C 16.9404 98.2148 15.6012 97.6777 14.5986 96.6035C 13.6032 95.5293 13.1055 94.0684 13.1055 92.2207L 13.1055 92.0811ZM 16.21 92.3066C 16.21 93.4095 16.4176 94.2546 16.833 94.8418C 17.2484 95.4219 17.8428 95.7119 18.6162 95.7119C 19.3682 95.7119 19.9554 95.4255 20.3779 94.8525C 20.8005 94.2725 21.0117 93.3486 21.0117 92.0811C 21.0117 90.9997 20.8005 90.1618 20.3779 89.5674C 19.9554 88.973 19.361 88.6758 18.5947 88.6758C 17.8356 88.6758 17.2484 88.973 16.833 89.5674C 16.4176 90.1546 16.21 91.0677 16.21 92.3066ZM 25.5449 92.0811C 25.5449 90.9281 25.7669 89.9004 26.2109 88.998C 26.6549 88.0957 27.2923 87.3975 28.123 86.9033C 28.9609 86.4092 29.9313 86.1621 31.0342 86.1621C 32.6025 86.1621 33.8809 86.6419 34.8691 87.6016C 35.8646 88.5612 36.4196 89.8646 36.5342 91.5117L 36.5557 92.3066C 36.5557 94.0898 36.0579 95.5221 35.0625 96.6035C 34.0671 97.6777 32.7314 98.2148 31.0557 98.2148C 29.3799 98.2148 28.0407 97.6777 27.0381 96.6035C 26.0426 95.5293 25.5449 94.0684 25.5449 92.2207L 25.5449 92.0811ZM 28.6494 92.3066C 28.6494 93.4095 28.8571 94.2546 29.2725 94.8418C 29.6878 95.4219 30.2822 95.7119 31.0557 95.7119C 31.8076 95.7119 32.3949 95.4255 32.8174 94.8525C 33.2399 94.2725 33.4512 93.3486 33.4512 92.0811C 33.4512 90.9997 33.2399 90.1618 32.8174 89.5674C 32.3949 88.973 31.8005 88.6758 31.0342 88.6758C 30.2751 88.6758 29.6878 88.973 29.2725 89.5674C 28.8571 90.1546 28.6494 91.0677 28.6494 92.3066ZM 42.6895 93.3379L 41.5723 94.4551L 41.5723 98L 38.4678 98L 38.4678 81.5L 41.5723 81.5L 41.5723 90.6416L 42.1738 89.8682L 45.1494 86.377L 48.877 86.377L 44.6768 91.2217L 49.2422 98L 45.6758 98L 42.6895 93.3379ZM 56.5146 94.7881C 56.5146 94.4085 56.3249 94.1113 55.9453 93.8965C 55.5729 93.6745 54.9714 93.4775 54.1406 93.3057C 51.3763 92.7256 49.9941 91.5511 49.9941 89.7822C 49.9941 88.751 50.4202 87.8916 51.2725 87.2041C 52.1318 86.5094 53.2526 86.1621 54.6348 86.1621C 56.11 86.1621 57.2881 86.5094 58.1689 87.2041C 59.057 87.8988 59.501 88.8011 59.501 89.9111L 56.3965 89.9111C 56.3965 89.4671 56.2533 89.1019 55.9668 88.8154C 55.6803 88.5218 55.2327 88.375 54.624 88.375C 54.1012 88.375 53.6966 88.4932 53.4102 88.7295C 53.1237 88.9658 52.9805 89.2666 52.9805 89.6318C 52.9805 89.9756 53.1416 90.2549 53.4639 90.4697C 53.7933 90.6774 54.3447 90.86 55.1182 91.0176C 55.8916 91.168 56.5433 91.3398 57.0732 91.5332C 58.7132 92.1348 59.5332 93.1768 59.5332 94.6592C 59.5332 95.7191 59.0785 96.5785 58.1689 97.2373C 57.2594 97.889 56.085 98.2148 54.6455 98.2148C 53.6715 98.2148 52.805 98.043 52.0459 97.6992C 51.2939 97.3483 50.7031 96.8721 50.2734 96.2705C 49.8438 95.6618 49.6289 95.0065 49.6289 94.3047L 52.5723 94.3047C 52.6009 94.8561 52.805 95.2786 53.1846 95.5723C 53.5641 95.8659 54.0726 96.0127 54.71 96.0127C 55.3044 96.0127 55.752 95.9017 56.0527 95.6797C 56.3607 95.4505 56.5146 95.1533 56.5146 94.7881ZM 67.8691 98L 67.8691 88.6543L 66.1396 88.6543L 66.1396 86.377L 67.8691 86.377L 67.8691 85.3887C 67.8691 84.0853 68.2415 83.0755 68.9863 82.3594C 69.7383 81.6361 70.7874 81.2744 72.1338 81.2744C 72.5635 81.2744 73.0898 81.346 73.7129 81.4893L 73.6807 83.8955C 73.4229 83.8311 73.1077 83.7988 72.7354 83.7988C 71.568 83.7988 70.9844 84.3467 70.9844 85.4424L 70.9844 86.377L 73.2939 86.377L 73.2939 88.6543L 70.9844 88.6543L 70.9844 98L 67.8691 98ZM 74.4219 92.0811C 74.4219 90.9281 74.6439 89.9004 75.0879 88.998C 75.5319 88.0957 76.1693 87.3975 77 86.9033C 77.8379 86.4092 78.8083 86.1621 79.9111 86.1621C 81.4795 86.1621 82.7578 86.6419 83.7461 87.6016C 84.7415 88.5612 85.2965 89.8646 85.4111 91.5117L 85.4326 92.3066C 85.4326 94.0898 84.9349 95.5221 83.9395 96.6035C 82.944 97.6777 81.6084 98.2148 79.9326 98.2148C 78.2568 98.2148 76.9176 97.6777 75.915 96.6035C 74.9196 95.5293 74.4219 94.0684 74.4219 92.2207L 74.4219 92.0811ZM 77.5264 92.3066C 77.5264 93.4095 77.734 94.2546 78.1494 94.8418C 78.5648 95.4219 79.1592 95.7119 79.9326 95.7119C 80.6846 95.7119 81.2718 95.4255 81.6943 94.8525C 82.1169 94.2725 82.3281 93.3486 82.3281 92.0811C 82.3281 90.9997 82.1169 90.1618 81.6943 89.5674C 81.2718 88.973 80.6774 88.6758 79.9111 88.6758C 79.152 88.6758 78.5648 88.973 78.1494 89.5674C 77.734 90.1546 77.5264 91.0677 77.5264 92.3066ZM 93.876 89.2881C 93.4535 89.2308 93.0811 89.2021 92.7588 89.2021C 91.5843 89.2021 90.8145 89.5996 90.4492 90.3945L 90.4492 98L 87.3447 98L 87.3447 86.377L 90.2773 86.377L 90.3633 87.7627C 90.9863 86.6956 91.8493 86.1621 92.9521 86.1621C 93.2959 86.1621 93.6182 86.2087 93.9189 86.3018L 93.876 89.2881ZM 101.707 98L 101.707 88.6543L 99.9775 88.6543L 99.9775 86.377L 101.707 86.377L 101.707 85.3887C 101.707 84.0853 102.079 83.0755 102.824 82.3594C 103.576 81.6361 104.625 81.2744 105.972 81.2744C 106.401 81.2744 106.928 81.346 107.551 81.4893L 107.519 83.8955C 107.261 83.8311 106.946 83.7988 106.573 83.7988C 105.406 83.7988 104.822 84.3467 104.822 85.4424L 104.822 86.377L 107.132 86.377L 107.132 88.6543L 104.822 88.6543L 104.822 98L 101.707 98ZM 115.274 89.2881C 114.852 89.2308 114.479 89.2021 114.157 89.2021C 112.983 89.2021 112.213 89.5996 111.848 90.3945L 111.848 98L 108.743 98L 108.743 86.377L 111.676 86.377L 111.762 87.7627C 112.385 86.6956 113.248 86.1621 114.351 86.1621C 114.694 86.1621 115.017 86.2087 115.317 86.3018L 115.274 89.2881ZM 121.913 98.2148C 120.209 98.2148 118.819 97.6921 117.745 96.6465C 116.678 95.6009 116.145 94.208 116.145 92.4678L 116.145 92.167C 116.145 90.9997 116.37 89.9577 116.821 89.041C 117.272 88.1172 117.91 87.4082 118.733 86.9141C 119.564 86.4128 120.509 86.1621 121.569 86.1621C 123.159 86.1621 124.409 86.6634 125.318 87.666C 126.235 88.6686 126.693 90.0902 126.693 91.9307L 126.693 93.1982L 119.292 93.1982C 119.392 93.9574 119.693 94.5661 120.194 95.0244C 120.703 95.4827 121.344 95.7119 122.117 95.7119C 123.313 95.7119 124.248 95.2786 124.921 94.4121L 126.446 96.1201C 125.981 96.779 125.351 97.2946 124.556 97.667C 123.761 98.0322 122.88 98.2148 121.913 98.2148ZM 121.559 88.6758C 120.943 88.6758 120.441 88.8835 120.055 89.2988C 119.675 89.7142 119.432 90.3086 119.324 91.082L 123.643 91.082L 123.643 90.835C 123.628 90.1475 123.442 89.6175 123.084 89.2451C 122.726 88.8656 122.217 88.6758 121.559 88.6758ZM 133.815 98.2148C 132.111 98.2148 130.722 97.6921 129.647 96.6465C 128.58 95.6009 128.047 94.208 128.047 92.4678L 128.047 92.167C 128.047 90.9997 128.272 89.9577 128.724 89.041C 129.175 88.1172 129.812 87.4082 130.636 86.9141C 131.466 86.4128 132.412 86.1621 133.472 86.1621C 135.062 86.1621 136.311 86.6634 137.221 87.666C 138.137 88.6686 138.596 90.0902 138.596 91.9307L 138.596 93.1982L 131.194 93.1982C 131.295 93.9574 131.595 94.5661 132.097 95.0244C 132.605 95.4827 133.246 95.7119 134.02 95.7119C 135.215 95.7119 136.15 95.2786 136.823 94.4121L 138.349 96.1201C 137.883 96.779 137.253 97.2946 136.458 97.667C 135.663 98.0322 134.782 98.2148 133.815 98.2148ZM 133.461 88.6758C 132.845 88.6758 132.344 88.8835 131.957 89.2988C 131.577 89.7142 131.334 90.3086 131.227 91.082L 135.545 91.082L 135.545 90.835C 135.531 90.1475 135.344 89.6175 134.986 89.2451C 134.628 88.8656 134.12 88.6758 133.461 88.6758Z"/>
<path id="path1_fill" fill-rule="evenodd" d="M 251.126 105.782C 251.126 129.118 234.798 148.415 214.067 160.811C 205.554 165.897 199.834 174.017 198.324 183.165C 196.878 191.96 199.563 194.816 191.25 187.271C 183.368 180.122 172.381 176.745 161.357 177.998C 111.281 183.768 35.8865 160.432 35.8865 105.788C 35.8865 7.97497 250.523 9.4544 251.126 105.782ZM 143.5 0C 64.2444 0 0 47.3557 0 105.782C 0 180.747 93.1992 218.713 165.877 210.28C 196.705 238.25 233.493 243.26 269.063 244L 269.063 237.158C 247.714 227.673 230.023 210.855 233.798 187.994C 266.254 168.602 287 138.972 287 105.782C 287 38.6103 210.006 0 143.5 0Z"/>
</defs>
</svg>
