<svg width="61" height="56" viewBox="0 0 61 56" version="1.1" xmlns="http://www.w3.org/2000/svg" xmlns:xlink="http://www.w3.org/1999/xlink">
<title>computer</title>
<desc>Created using Figma</desc>
<g id="Canvas" transform="translate(139 2043)">
<g id="computer">
<use xlink:href="#path0_fill" transform="translate(-139 -2043)" fill="#00B5D6"/>
</g>
</g>
<defs>
<path id="path0_fill" d="M 59.0679 0L 1.45847 0C 0.656309 0 0 0.663158 0 1.47368L 0 39.9368C 0 40.7474 0.656309 41.4105 1.45847 41.4105L 28.8047 41.4105L 28.8047 52.3158L 18.2308 52.3158L 18.2308 55.2632L 42.3684 55.2632L 42.3684 52.3158L 31.7216 52.3158L 31.7216 41.4105L 59.0679 41.4105C 59.87 41.4105 60.5263 40.7474 60.5263 39.9368L 60.5263 1.47368C 60.5263 0.663158 59.87 0 59.0679 0ZM 57.6094 38.4632L 31.7216 38.4632L 28.8047 38.4632L 2.91693 38.4632L 2.91693 2.94737L 57.6094 2.94737L 57.6094 38.4632Z"/>
</defs>
</svg>
