<svg width="82" height="81" viewBox="0 0 82 81" version="1.1" xmlns="http://www.w3.org/2000/svg" xmlns:xlink="http://www.w3.org/1999/xlink">
<title>Vector</title>
<desc>Created using Figma</desc>
<g id="Canvas" transform="translate(-1541 935)">
<g id="Vector">
<use xlink:href="#path0_fill" transform="translate(1541.52 -935)" fill="#FFFFFF"/>
</g>
</g>
<defs>
<path id="path0_fill" d="M 40.35 -3.8147e-07C 32.3695 -3.8147e-07 24.5683 2.36649 17.9328 6.8002C 11.2972 11.2339 6.12548 17.5357 3.07148 24.9087C 0.0174832 32.2817 -0.781582 40.3948 0.775332 48.2219C 2.33225 56.049 6.17521 63.2387 11.8183 68.8818C 17.4613 74.5248 24.651 78.3678 32.4781 79.9247C 40.3053 81.4816 48.4183 80.6825 55.7913 77.6285C 63.1643 74.5745 69.4661 69.4028 73.8998 62.7673C 78.3335 56.1317 80.7 48.3305 80.7 40.35C 80.6894 29.6518 76.4349 19.3947 68.8701 11.8299C 61.3053 4.26514 51.0483 0.0105893 40.35 -3.8147e-07ZM 40.35 70.7C 34.3474 70.7 28.4795 68.92 23.4885 65.5851C 18.4974 62.2502 14.6074 57.5102 12.3103 51.9644C 10.0132 46.4187 9.41212 40.3163 10.5832 34.429C 11.7542 28.5417 14.6448 23.1338 18.8893 18.8893C 23.1339 14.6448 28.5417 11.7542 34.429 10.5832C 40.3164 9.41211 46.4187 10.0131 51.9645 12.3103C 57.5102 14.6074 62.2502 18.4974 65.5851 23.4884C 68.92 28.4795 70.7 34.3473 70.7 40.35C 70.6921 48.3969 67.4919 56.1119 61.8019 61.8019C 56.1119 67.4919 48.3969 70.6921 40.35 70.7ZM 38.21 26.75L 34.28 30.68L 38.18 34.58L 33.18 39.58L 29.28 35.68L 25.48 39.5L 20.48 34.55L 24.35 30.68L 20.48 26.78L 25.48 21.83L 29.38 25.73L 33.31 21.8L 38.21 26.75ZM 56.33 30.68L 60.23 34.58L 55.23 39.58L 51.33 35.68L 47.48 39.53L 42.48 34.53L 46.38 30.63L 42.48 26.73L 47.48 21.78L 51.38 25.68L 55.28 21.78L 60.28 26.73L 56.33 30.68ZM 40.33 62.68C 38.4151 62.682 36.5426 62.1159 34.9494 61.0535C 33.3562 59.991 32.1139 58.4799 31.3797 56.7113C 30.6455 54.9427 30.4524 52.9961 30.8248 51.1177C 31.1972 49.2393 32.1183 47.5135 33.4717 46.1587C 34.8251 44.804 36.5499 43.8811 38.4279 43.5067C 40.3059 43.1324 42.2527 43.3235 44.0221 44.0559C 45.7915 44.7883 47.3039 46.029 48.3679 47.621C 49.432 49.2131 50 51.0851 50 53C 50.0053 55.5638 48.9933 58.0251 47.186 59.8436C 45.3788 61.6621 42.9238 62.6894 40.36 62.7L 40.33 62.68Z"/>
</defs>
</svg>
