<svg width="55" height="55" viewBox="0 0 55 55" version="1.1" xmlns="http://www.w3.org/2000/svg" xmlns:xlink="http://www.w3.org/1999/xlink">
<title>event</title>
<desc>Created using Figma</desc>
<g id="Canvas" transform="translate(43 2173)">
<g id="event">
<use xlink:href="#path0_fill" transform="translate(-43 -2173)" fill="#00B5D6"/>
</g>
</g>
<defs>
<path id="path0_fill" d="M 48.3431 5.4386L 45.3216 5.4386L 45.3216 0L 39.2788 0L 39.2788 5.4386L 15.1072 5.4386L 15.1072 0L 9.06433 0L 9.06433 5.4386L 6.04288 5.4386C 2.70419 5.4386 0 7.87237 0 10.8772L 0 48.9474C 0 51.9522 2.70419 54.386 6.04288 54.386L 48.3431 54.386C 51.6818 54.386 54.386 51.9522 54.386 48.9474L 54.386 10.8772C 54.386 7.87237 51.6818 5.4386 48.3431 5.4386ZM 27.193 13.5965C 32.1935 13.5965 36.2573 17.2539 36.2573 21.7544C 36.2573 26.2684 32.1935 29.9123 27.193 29.9123C 22.1925 29.9123 18.1287 26.2684 18.1287 21.7544C 18.1287 17.2539 22.1925 13.5965 27.193 13.5965ZM 45.3216 46.2281L 9.06433 46.2281L 9.06433 43.5088C 9.06433 38.0702 21.1501 35.0789 27.193 35.0789C 33.2359 35.0789 45.3216 38.0702 45.3216 43.5088L 45.3216 46.2281Z"/>
</defs>
</svg>
