<svg width="44" height="64" viewBox="0 0 44 64" version="1.1" xmlns="http://www.w3.org/2000/svg" xmlns:xlink="http://www.w3.org/1999/xlink">
<title>Vector</title>
<desc>Created using Figma</desc>
<g id="Canvas" transform="translate(-466 2658)">
<g id="Vector">
<use xlink:href="#path0_fill" transform="translate(466.309 -2657.41)" fill="#EB5757"/>
</g>
</g>
<defs>
<path id="path0_fill" d="M 21.7689 -5.94881e-06C 14.6223 -5.94881e-06 8.86901 5.74993 8.86901 12.8922L 8.86901 32.2306C 8.86901 39.3729 14.6223 45.1228 21.7689 45.1228C 28.9154 45.1228 34.6687 39.3729 34.6687 32.2306L 34.6687 12.8922C 34.6687 5.74993 28.9154 -5.94881e-06 21.7689 -5.94881e-06ZM 1.43642 21.7305C 0.644119 21.8175 -0.0168459 22.5707 0.000327247 23.3672L 0.000327247 32.2306C 0.000327247 43.5765 8.86699 53.076 20.1564 53.9107L 20.1564 59.6266L 10.4814 59.6266C 9.59093 59.6266 8.86901 60.3481 8.86901 61.2381C 8.86901 62.1282 9.59093 62.8497 10.4814 62.8497L 33.0562 62.8497C 33.9468 62.8497 34.6687 62.1282 34.6687 61.2381C 34.6687 60.3481 33.9468 59.6266 33.0562 59.6266L 23.3813 59.6266L 23.3813 53.9107C 34.6707 53.076 43.5373 43.5765 43.5373 32.2306L 43.5373 23.3672C 43.5502 22.5153 42.7774 21.7313 41.9249 21.7313C 41.0724 21.7313 40.2996 22.5153 40.3124 23.3672L 40.3124 32.2306C 40.3124 42.3578 32.0549 50.7632 21.7689 50.7632C 11.4828 50.7632 3.22533 42.3578 3.22533 32.2306L 3.22533 23.3672C 3.24468 22.453 2.34587 21.6303 1.43642 21.7305Z"/>
</defs>
</svg>
