<svg width="322" height="279" viewBox="0 0 322 279" version="1.1" xmlns="http://www.w3.org/2000/svg" xmlns:xlink="http://www.w3.org/1999/xlink">
<title>Group</title>
<desc>Created using Figma</desc>
<g id="Canvas" transform="translate(-388 1988)">
<g id="Group">
<g id="I love my library because of the sense ofmunity that provides">
<use xlink:href="#path0_fill" transform="translate(470 -1928)" fill="#00B5D6"/>
</g>
<g id="Vector">
<use xlink:href="#path1_fill" transform="translate(388 -1988)" fill="#00B5D6"/>
</g>
</g>
</g>
<defs>
<path id="path0_fill" d="M 4.82324 20L 1.60059 20L 1.60059 4.35938L 4.82324 4.35938L 4.82324 20ZM 16.3711 20L 13.2559 20L 13.2559 3.5L 16.3711 3.5L 16.3711 20ZM 18.4551 14.0811C 18.4551 12.9281 18.6771 11.9004 19.1211 10.998C 19.5651 10.0957 20.2025 9.39746 21.0332 8.90332C 21.8711 8.40918 22.8415 8.16211 23.9443 8.16211C 25.5127 8.16211 26.791 8.64193 27.7793 9.60156C 28.7747 10.5612 29.3298 11.8646 29.4443 13.5117L 29.4658 14.3066C 29.4658 16.0898 28.9681 17.5221 27.9727 18.6035C 26.9772 19.6777 25.6416 20.2148 23.9658 20.2148C 22.29 20.2148 20.9508 19.6777 19.9482 18.6035C 18.9528 17.5293 18.4551 16.0684 18.4551 14.2207L 18.4551 14.0811ZM 21.5596 14.3066C 21.5596 15.4095 21.7673 16.2546 22.1826 16.8418C 22.598 17.4219 23.1924 17.7119 23.9658 17.7119C 24.7178 17.7119 25.305 17.4255 25.7275 16.8525C 26.1501 16.2725 26.3613 15.3486 26.3613 14.0811C 26.3613 12.9997 26.1501 12.1618 25.7275 11.5674C 25.305 10.973 24.7106 10.6758 23.9443 10.6758C 23.1852 10.6758 22.598 10.973 22.1826 11.5674C 21.7673 12.1546 21.5596 13.0677 21.5596 14.3066ZM 35.5566 16.208L 37.7158 8.37695L 40.96 8.37695L 37.0391 20L 34.0742 20L 30.1533 8.37695L 33.3975 8.37695L 35.5566 16.208ZM 47.5342 20.2148C 45.8298 20.2148 44.4404 19.6921 43.3662 18.6465C 42.2992 17.6009 41.7656 16.208 41.7656 14.4678L 41.7656 14.167C 41.7656 12.9997 41.9912 11.9577 42.4424 11.041C 42.8936 10.1172 43.5309 9.4082 44.3545 8.91406C 45.1852 8.41276 46.1305 8.16211 47.1904 8.16211C 48.7803 8.16211 50.0299 8.66341 50.9395 9.66602C 51.8561 10.6686 52.3145 12.0902 52.3145 13.9307L 52.3145 15.1982L 44.9131 15.1982C 45.0133 15.9574 45.3141 16.5661 45.8154 17.0244C 46.3239 17.4827 46.9648 17.7119 47.7383 17.7119C 48.9342 17.7119 49.8688 17.2786 50.542 16.4121L 52.0674 18.1201C 51.6019 18.779 50.9717 19.2946 50.1768 19.667C 49.3818 20.0322 48.501 20.2148 47.5342 20.2148ZM 47.1797 10.6758C 46.5638 10.6758 46.0625 10.8835 45.6758 11.2988C 45.2962 11.7142 45.0527 12.3086 44.9453 13.082L 49.2637 13.082L 49.2637 12.835C 49.2493 12.1475 49.0632 11.6175 48.7051 11.2451C 48.347 10.8656 47.8385 10.6758 47.1797 10.6758ZM 62.4766 8.37695L 62.5732 9.67676C 63.3968 8.66699 64.5104 8.16211 65.9141 8.16211C 67.4108 8.16211 68.4385 8.75293 68.9971 9.93457C 69.8135 8.75293 70.9772 8.16211 72.4883 8.16211C 73.7487 8.16211 74.6868 8.53092 75.3027 9.26855C 75.9186 9.99902 76.2266 11.1019 76.2266 12.5771L 76.2266 20L 73.1113 20L 73.1113 12.5879C 73.1113 11.929 72.9824 11.4492 72.7246 11.1484C 72.4668 10.8405 72.012 10.6865 71.3604 10.6865C 70.4294 10.6865 69.7848 11.1305 69.4268 12.0186L 69.4375 20L 66.333 20L 66.333 12.5986C 66.333 11.9255 66.2005 11.4385 65.9355 11.1377C 65.6706 10.8369 65.2194 10.6865 64.582 10.6865C 63.7012 10.6865 63.0638 11.0518 62.6699 11.7822L 62.6699 20L 59.5654 20L 59.5654 8.37695L 62.4766 8.37695ZM 82.9619 15.6064L 85.1104 8.37695L 88.4404 8.37695L 83.7676 21.8047L 83.5098 22.417C 82.8151 23.9352 81.6693 24.6943 80.0723 24.6943C 79.6211 24.6943 79.1628 24.6263 78.6973 24.4902L 78.6973 22.1377L 79.1699 22.1484C 79.7572 22.1484 80.194 22.0589 80.4805 21.8799C 80.7741 21.7008 81.0033 21.4036 81.168 20.9883L 81.5332 20.0322L 77.4619 8.37695L 80.8027 8.37695L 82.9619 15.6064ZM 98.4199 20L 95.3047 20L 95.3047 3.5L 98.4199 3.5L 98.4199 20ZM 104.264 20L 101.148 20L 101.148 8.37695L 104.264 8.37695L 104.264 20ZM 100.966 5.36914C 100.966 4.90365 101.12 4.52051 101.428 4.21973C 101.743 3.91895 102.169 3.76855 102.706 3.76855C 103.236 3.76855 103.659 3.91895 103.974 4.21973C 104.289 4.52051 104.446 4.90365 104.446 5.36914C 104.446 5.8418 104.285 6.22852 103.963 6.5293C 103.648 6.83008 103.229 6.98047 102.706 6.98047C 102.183 6.98047 101.761 6.83008 101.438 6.5293C 101.123 6.22852 100.966 5.8418 100.966 5.36914ZM 117.305 14.2959C 117.305 16.1579 116.907 17.6117 116.112 18.6572C 115.317 19.6956 114.207 20.2148 112.782 20.2148C 111.522 20.2148 110.516 19.7314 109.764 18.7646L 109.624 20L 106.831 20L 106.831 3.5L 109.936 3.5L 109.936 9.41895C 110.652 8.58105 111.593 8.16211 112.761 8.16211C 114.179 8.16211 115.289 8.6849 116.091 9.73047C 116.9 10.7689 117.305 12.2334 117.305 14.124L 117.305 14.2959ZM 114.2 14.0703C 114.2 12.8958 114.014 12.04 113.642 11.5029C 113.269 10.9587 112.714 10.6865 111.977 10.6865C 110.988 10.6865 110.308 11.0911 109.936 11.9004L 109.936 16.4873C 110.315 17.3037 111.003 17.7119 111.998 17.7119C 113.001 17.7119 113.66 17.2178 113.975 16.2295C 114.125 15.7568 114.2 15.0371 114.2 14.0703ZM 125.759 11.2881C 125.336 11.2308 124.964 11.2021 124.642 11.2021C 123.467 11.2021 122.697 11.5996 122.332 12.3945L 122.332 20L 119.228 20L 119.228 8.37695L 122.16 8.37695L 122.246 9.7627C 122.869 8.69564 123.732 8.16211 124.835 8.16211C 125.179 8.16211 125.501 8.20866 125.802 8.30176L 125.759 11.2881ZM 133.676 20C 133.533 19.7207 133.429 19.3734 133.364 18.958C 132.612 19.7959 131.635 20.2148 130.432 20.2148C 129.293 20.2148 128.348 19.8854 127.596 19.2266C 126.851 18.5677 126.479 17.737 126.479 16.7344C 126.479 15.5026 126.933 14.5573 127.843 13.8984C 128.759 13.2396 130.081 12.9066 131.807 12.8994L 133.235 12.8994L 133.235 12.2334C 133.235 11.6963 133.096 11.2666 132.816 10.9443C 132.544 10.6221 132.111 10.4609 131.517 10.4609C 130.994 10.4609 130.582 10.5863 130.281 10.8369C 129.988 11.0876 129.841 11.4313 129.841 11.8682L 126.736 11.8682C 126.736 11.195 126.944 10.5719 127.359 9.99902C 127.775 9.42611 128.362 8.97852 129.121 8.65625C 129.88 8.32682 130.732 8.16211 131.678 8.16211C 133.11 8.16211 134.245 8.52376 135.083 9.24707C 135.928 9.96322 136.351 10.973 136.351 12.2764L 136.351 17.3145C 136.358 18.4173 136.512 19.2516 136.812 19.8174L 136.812 20L 133.676 20ZM 131.108 17.8408C 131.567 17.8408 131.989 17.7406 132.376 17.54C 132.763 17.3324 133.049 17.0566 133.235 16.7129L 133.235 14.7148L 132.075 14.7148C 130.521 14.7148 129.694 15.252 129.594 16.3262L 129.583 16.5088C 129.583 16.8955 129.719 17.2142 129.991 17.4648C 130.263 17.7155 130.636 17.8408 131.108 17.8408ZM 145.267 11.2881C 144.844 11.2308 144.472 11.2021 144.149 11.2021C 142.975 11.2021 142.205 11.5996 141.84 12.3945L 141.84 20L 138.735 20L 138.735 8.37695L 141.668 8.37695L 141.754 9.7627C 142.377 8.69564 143.24 8.16211 144.343 8.16211C 144.687 8.16211 145.009 8.20866 145.31 8.30176L 145.267 11.2881ZM 151.304 15.6064L 153.452 8.37695L 156.782 8.37695L 152.109 21.8047L 151.852 22.417C 151.157 23.9352 150.011 24.6943 148.414 24.6943C 147.963 24.6943 147.505 24.6263 147.039 24.4902L 147.039 22.1377L 147.512 22.1484C 148.099 22.1484 148.536 22.0589 148.822 21.8799C 149.116 21.7008 149.345 21.4036 149.51 20.9883L 149.875 20.0322L 145.804 8.37695L 149.145 8.37695L 151.304 15.6064ZM 11.666 40.2959C 11.666 42.1579 11.2686 43.6117 10.4736 44.6572C 9.67871 45.6956 8.56868 46.2148 7.14355 46.2148C 5.88314 46.2148 4.87695 45.7314 4.125 44.7646L 3.98535 46L 1.19238 46L 1.19238 29.5L 4.29688 29.5L 4.29688 35.4189C 5.01302 34.5811 5.95475 34.1621 7.12207 34.1621C 8.54004 34.1621 9.65007 34.6849 10.4521 35.7305C 11.2614 36.7689 11.666 38.2334 11.666 40.124L 11.666 40.2959ZM 8.56152 40.0703C 8.56152 38.8958 8.37533 38.04 8.00293 37.5029C 7.63053 36.9587 7.07552 36.6865 6.33789 36.6865C 5.34961 36.6865 4.66927 37.0911 4.29688 37.9004L 4.29688 42.4873C 4.67643 43.3037 5.36393 43.7119 6.35938 43.7119C 7.36198 43.7119 8.02083 43.2178 8.33594 42.2295C 8.48633 41.7568 8.56152 41.0371 8.56152 40.0703ZM 18.9385 46.2148C 17.234 46.2148 15.8447 45.6921 14.7705 44.6465C 13.7035 43.6009 13.1699 42.208 13.1699 40.4678L 13.1699 40.167C 13.1699 38.9997 13.3955 37.9577 13.8467 37.041C 14.2979 36.1172 14.9352 35.4082 15.7588 34.9141C 16.5895 34.4128 17.5348 34.1621 18.5947 34.1621C 20.1846 34.1621 21.4342 34.6634 22.3438 35.666C 23.2604 36.6686 23.7188 38.0902 23.7188 39.9307L 23.7188 41.1982L 16.3174 41.1982C 16.4176 41.9574 16.7184 42.5661 17.2197 43.0244C 17.7282 43.4827 18.3691 43.7119 19.1426 43.7119C 20.3385 43.7119 21.2731 43.2786 21.9463 42.4121L 23.4717 44.1201C 23.0062 44.779 22.376 45.2946 21.5811 45.667C 20.7861 46.0322 19.9053 46.2148 18.9385 46.2148ZM 18.584 36.6758C 17.9681 36.6758 17.4668 36.8835 17.0801 37.2988C 16.7005 37.7142 16.457 38.3086 16.3496 39.082L 20.668 39.082L 20.668 38.835C 20.6536 38.1475 20.4674 37.6175 20.1094 37.2451C 19.7513 36.8656 19.2428 36.6758 18.584 36.6758ZM 30.3252 43.7119C 30.8981 43.7119 31.3636 43.5544 31.7217 43.2393C 32.0798 42.9242 32.266 42.5052 32.2803 41.9824L 35.1914 41.9824C 35.1842 42.7702 34.9694 43.4935 34.5469 44.1523C 34.1243 44.804 33.5443 45.3125 32.8066 45.6777C 32.0762 46.0358 31.2669 46.2148 30.3789 46.2148C 28.7174 46.2148 27.4069 45.6885 26.4473 44.6357C 25.4876 43.5758 25.0078 42.1149 25.0078 40.2529L 25.0078 40.0488C 25.0078 38.2585 25.484 36.8298 26.4365 35.7627C 27.389 34.6956 28.696 34.1621 30.3574 34.1621C 31.8112 34.1621 32.9749 34.5775 33.8486 35.4082C 34.7295 36.2318 35.1771 37.3311 35.1914 38.7061L 32.2803 38.7061C 32.266 38.1045 32.0798 37.6175 31.7217 37.2451C 31.3636 36.8656 30.891 36.6758 30.3037 36.6758C 29.5804 36.6758 29.0326 36.9408 28.6602 37.4707C 28.2949 37.9935 28.1123 38.8457 28.1123 40.0273L 28.1123 40.3496C 28.1123 41.5456 28.2949 42.4049 28.6602 42.9277C 29.0254 43.4505 29.5804 43.7119 30.3252 43.7119ZM 43.6992 46C 43.556 45.7207 43.4521 45.3734 43.3877 44.958C 42.6357 45.7959 41.6582 46.2148 40.4551 46.2148C 39.3164 46.2148 38.3711 45.8854 37.6191 45.2266C 36.8743 44.5677 36.502 43.737 36.502 42.7344C 36.502 41.5026 36.9567 40.5573 37.8662 39.8984C 38.7829 39.2396 40.1042 38.9066 41.8301 38.8994L 43.2588 38.8994L 43.2588 38.2334C 43.2588 37.6963 43.1191 37.2666 42.8398 36.9443C 42.5677 36.6221 42.1344 36.4609 41.54 36.4609C 41.0173 36.4609 40.6055 36.5863 40.3047 36.8369C 40.0111 37.0876 39.8643 37.4313 39.8643 37.8682L 36.7598 37.8682C 36.7598 37.195 36.9674 36.5719 37.3828 35.999C 37.7982 35.4261 38.3854 34.9785 39.1445 34.6562C 39.9036 34.3268 40.7559 34.1621 41.7012 34.1621C 43.1335 34.1621 44.2686 34.5238 45.1064 35.2471C 45.9515 35.9632 46.374 36.973 46.374 38.2764L 46.374 43.3145C 46.3812 44.4173 46.5352 45.2516 46.8359 45.8174L 46.8359 46L 43.6992 46ZM 41.1318 43.8408C 41.5902 43.8408 42.0127 43.7406 42.3994 43.54C 42.7861 43.3324 43.0726 43.0566 43.2588 42.7129L 43.2588 40.7148L 42.0986 40.7148C 40.5446 40.7148 39.7174 41.252 39.6172 42.3262L 39.6064 42.5088C 39.6064 42.8955 39.7425 43.2142 40.0146 43.4648C 40.2868 43.7155 40.6592 43.8408 41.1318 43.8408ZM 55.7197 44.8184C 54.9535 45.7493 53.8936 46.2148 52.54 46.2148C 51.2939 46.2148 50.3415 45.8568 49.6826 45.1406C 49.0309 44.4245 48.6979 43.3753 48.6836 41.9932L 48.6836 34.377L 51.7881 34.377L 51.7881 41.8857C 51.7881 43.096 52.3395 43.7012 53.4424 43.7012C 54.4951 43.7012 55.2184 43.3359 55.6123 42.6055L 55.6123 34.377L 58.7275 34.377L 58.7275 46L 55.8057 46L 55.7197 44.8184ZM 67.3643 42.7881C 67.3643 42.4085 67.1745 42.1113 66.7949 41.8965C 66.4225 41.6745 65.821 41.4775 64.9902 41.3057C 62.2259 40.7256 60.8438 39.5511 60.8438 37.7822C 60.8438 36.751 61.2699 35.8916 62.1221 35.2041C 62.9814 34.5094 64.1022 34.1621 65.4844 34.1621C 66.9596 34.1621 68.1377 34.5094 69.0186 35.2041C 69.9066 35.8988 70.3506 36.8011 70.3506 37.9111L 67.2461 37.9111C 67.2461 37.4671 67.1029 37.1019 66.8164 36.8154C 66.5299 36.5218 66.0824 36.375 65.4736 36.375C 64.9508 36.375 64.5462 36.4932 64.2598 36.7295C 63.9733 36.9658 63.8301 37.2666 63.8301 37.6318C 63.8301 37.9756 63.9912 38.2549 64.3135 38.4697C 64.6429 38.6774 65.1943 38.86 65.9678 39.0176C 66.7412 39.168 67.3929 39.3398 67.9229 39.5332C 69.5628 40.1348 70.3828 41.1768 70.3828 42.6592C 70.3828 43.7191 69.9281 44.5785 69.0186 45.2373C 68.109 45.889 66.9346 46.2148 65.4951 46.2148C 64.5212 46.2148 63.6546 46.043 62.8955 45.6992C 62.1436 45.3483 61.5527 44.8721 61.123 44.2705C 60.6934 43.6618 60.4785 43.0065 60.4785 42.3047L 63.4219 42.3047C 63.4505 42.8561 63.6546 43.2786 64.0342 43.5723C 64.4137 43.8659 64.9222 44.0127 65.5596 44.0127C 66.154 44.0127 66.6016 43.9017 66.9023 43.6797C 67.2103 43.4505 67.3643 43.1533 67.3643 42.7881ZM 77.7412 46.2148C 76.0368 46.2148 74.6475 45.6921 73.5732 44.6465C 72.5062 43.6009 71.9727 42.208 71.9727 40.4678L 71.9727 40.167C 71.9727 38.9997 72.1982 37.9577 72.6494 37.041C 73.1006 36.1172 73.738 35.4082 74.5615 34.9141C 75.3923 34.4128 76.3376 34.1621 77.3975 34.1621C 78.9873 34.1621 80.237 34.6634 81.1465 35.666C 82.0632 36.6686 82.5215 38.0902 82.5215 39.9307L 82.5215 41.1982L 75.1201 41.1982C 75.2204 41.9574 75.5212 42.5661 76.0225 43.0244C 76.5309 43.4827 77.1719 43.7119 77.9453 43.7119C 79.1413 43.7119 80.0758 43.2786 80.749 42.4121L 82.2744 44.1201C 81.8089 44.779 81.1787 45.2946 80.3838 45.667C 79.5889 46.0322 78.708 46.2148 77.7412 46.2148ZM 77.3867 36.6758C 76.7708 36.6758 76.2695 36.8835 75.8828 37.2988C 75.5033 37.7142 75.2598 38.3086 75.1523 39.082L 79.4707 39.082L 79.4707 38.835C 79.4564 38.1475 79.2702 37.6175 78.9121 37.2451C 78.554 36.8656 78.0456 36.6758 77.3867 36.6758ZM 89.2891 40.0811C 89.2891 38.9281 89.5111 37.9004 89.9551 36.998C 90.3991 36.0957 91.0365 35.3975 91.8672 34.9033C 92.7051 34.4092 93.6755 34.1621 94.7783 34.1621C 96.3467 34.1621 97.625 34.6419 98.6133 35.6016C 99.6087 36.5612 100.164 37.8646 100.278 39.5117L 100.3 40.3066C 100.3 42.0898 99.8021 43.5221 98.8066 44.6035C 97.8112 45.6777 96.4756 46.2148 94.7998 46.2148C 93.124 46.2148 91.7848 45.6777 90.7822 44.6035C 89.7868 43.5293 89.2891 42.0684 89.2891 40.2207L 89.2891 40.0811ZM 92.3936 40.3066C 92.3936 41.4095 92.6012 42.2546 93.0166 42.8418C 93.432 43.4219 94.0264 43.7119 94.7998 43.7119C 95.5518 43.7119 96.139 43.4255 96.5615 42.8525C 96.984 42.2725 97.1953 41.3486 97.1953 40.0811C 97.1953 38.9997 96.984 38.1618 96.5615 37.5674C 96.139 36.973 95.5446 36.6758 94.7783 36.6758C 94.0192 36.6758 93.432 36.973 93.0166 37.5674C 92.6012 38.1546 92.3936 39.0677 92.3936 40.3066ZM 103.061 46L 103.061 36.6543L 101.331 36.6543L 101.331 34.377L 103.061 34.377L 103.061 33.3887C 103.061 32.0853 103.433 31.0755 104.178 30.3594C 104.93 29.6361 105.979 29.2744 107.325 29.2744C 107.755 29.2744 108.281 29.346 108.904 29.4893L 108.872 31.8955C 108.614 31.8311 108.299 31.7988 107.927 31.7988C 106.759 31.7988 106.176 32.3467 106.176 33.4424L 106.176 34.377L 108.485 34.377L 108.485 36.6543L 106.176 36.6543L 106.176 46L 103.061 46ZM 119.292 31.5195L 119.292 34.377L 121.279 34.377L 121.279 36.6543L 119.292 36.6543L 119.292 42.4551C 119.292 42.8848 119.374 43.1927 119.539 43.3789C 119.704 43.5651 120.019 43.6582 120.484 43.6582C 120.828 43.6582 121.132 43.6331 121.397 43.583L 121.397 45.9355C 120.789 46.1217 120.162 46.2148 119.518 46.2148C 117.34 46.2148 116.23 45.1156 116.188 42.917L 116.188 36.6543L 114.49 36.6543L 114.49 34.377L 116.188 34.377L 116.188 31.5195L 119.292 31.5195ZM 126.038 35.6445C 126.862 34.6562 127.896 34.1621 129.143 34.1621C 131.663 34.1621 132.942 35.6266 132.978 38.5557L 132.978 46L 129.873 46L 129.873 38.6416C 129.873 37.9756 129.73 37.485 129.443 37.1699C 129.157 36.8477 128.681 36.6865 128.015 36.6865C 127.105 36.6865 126.446 37.0374 126.038 37.7393L 126.038 46L 122.934 46L 122.934 29.5L 126.038 29.5L 126.038 35.6445ZM 140.669 46.2148C 138.965 46.2148 137.575 45.6921 136.501 44.6465C 135.434 43.6009 134.9 42.208 134.9 40.4678L 134.9 40.167C 134.9 38.9997 135.126 37.9577 135.577 37.041C 136.028 36.1172 136.666 35.4082 137.489 34.9141C 138.32 34.4128 139.265 34.1621 140.325 34.1621C 141.915 34.1621 143.165 34.6634 144.074 35.666C 144.991 36.6686 145.449 38.0902 145.449 39.9307L 145.449 41.1982L 138.048 41.1982C 138.148 41.9574 138.449 42.5661 138.95 43.0244C 139.459 43.4827 140.1 43.7119 140.873 43.7119C 142.069 43.7119 143.004 43.2786 143.677 42.4121L 145.202 44.1201C 144.737 44.779 144.106 45.2946 143.312 45.667C 142.517 46.0322 141.636 46.2148 140.669 46.2148ZM 140.314 36.6758C 139.699 36.6758 139.197 36.8835 138.811 37.2988C 138.431 37.7142 138.188 38.3086 138.08 39.082L 142.398 39.082L 142.398 38.835C 142.384 38.1475 142.198 37.6175 141.84 37.2451C 141.482 36.8656 140.973 36.6758 140.314 36.6758ZM 7.4873 68.7881C 7.4873 68.4085 7.29753 68.1113 6.91797 67.8965C 6.54557 67.6745 5.94401 67.4775 5.11328 67.3057C 2.34896 66.7256 0.966797 65.5511 0.966797 63.7822C 0.966797 62.751 1.3929 61.8916 2.24512 61.2041C 3.10449 60.5094 4.22526 60.1621 5.60742 60.1621C 7.08268 60.1621 8.26074 60.5094 9.1416 61.2041C 10.0296 61.8988 10.4736 62.8011 10.4736 63.9111L 7.36914 63.9111C 7.36914 63.4671 7.22591 63.1019 6.93945 62.8154C 6.65299 62.5218 6.2054 62.375 5.59668 62.375C 5.07389 62.375 4.66927 62.4932 4.38281 62.7295C 4.09635 62.9658 3.95312 63.2666 3.95312 63.6318C 3.95312 63.9756 4.11426 64.2549 4.43652 64.4697C 4.76595 64.6774 5.31738 64.86 6.09082 65.0176C 6.86426 65.168 7.51595 65.3398 8.0459 65.5332C 9.68587 66.1348 10.5059 67.1768 10.5059 68.6592C 10.5059 69.7191 10.0511 70.5785 9.1416 71.2373C 8.2321 71.889 7.05762 72.2148 5.61816 72.2148C 4.64421 72.2148 3.77767 72.043 3.01855 71.6992C 2.2666 71.3483 1.67578 70.8721 1.24609 70.2705C 0.816406 69.6618 0.601562 69.0065 0.601562 68.3047L 3.54492 68.3047C 3.57357 68.8561 3.77767 69.2786 4.15723 69.5723C 4.53678 69.8659 5.04525 70.0127 5.68262 70.0127C 6.27702 70.0127 6.72461 69.9017 7.02539 69.6797C 7.33333 69.4505 7.4873 69.1533 7.4873 68.7881ZM 17.8643 72.2148C 16.1598 72.2148 14.7705 71.6921 13.6963 70.6465C 12.6292 69.6009 12.0957 68.208 12.0957 66.4678L 12.0957 66.167C 12.0957 64.9997 12.3213 63.9577 12.7725 63.041C 13.2236 62.1172 13.861 61.4082 14.6846 60.9141C 15.5153 60.4128 16.4606 60.1621 17.5205 60.1621C 19.1104 60.1621 20.36 60.6634 21.2695 61.666C 22.1862 62.6686 22.6445 64.0902 22.6445 65.9307L 22.6445 67.1982L 15.2432 67.1982C 15.3434 67.9574 15.6442 68.5661 16.1455 69.0244C 16.654 69.4827 17.2949 69.7119 18.0684 69.7119C 19.2643 69.7119 20.1989 69.2786 20.8721 68.4121L 22.3975 70.1201C 21.932 70.779 21.3018 71.2946 20.5068 71.667C 19.7119 72.0322 18.8311 72.2148 17.8643 72.2148ZM 17.5098 62.6758C 16.8939 62.6758 16.3926 62.8835 16.0059 63.2988C 15.6263 63.7142 15.3828 64.3086 15.2754 65.082L 19.5938 65.082L 19.5938 64.835C 19.5794 64.1475 19.3932 63.6175 19.0352 63.2451C 18.6771 62.8656 18.1686 62.6758 17.5098 62.6758ZM 27.2744 60.377L 27.3711 61.7197C 28.2018 60.6813 29.3154 60.1621 30.7119 60.1621C 31.9437 60.1621 32.8604 60.5238 33.4619 61.2471C 34.0635 61.9704 34.3714 63.0518 34.3857 64.4912L 34.3857 72L 31.2812 72L 31.2812 64.5664C 31.2812 63.9076 31.138 63.4313 30.8516 63.1377C 30.5651 62.8369 30.0889 62.6865 29.4229 62.6865C 28.5492 62.6865 27.8939 63.0589 27.457 63.8037L 27.457 72L 24.3525 72L 24.3525 60.377L 27.2744 60.377ZM 43.0439 68.7881C 43.0439 68.4085 42.8542 68.1113 42.4746 67.8965C 42.1022 67.6745 41.5007 67.4775 40.6699 67.3057C 37.9056 66.7256 36.5234 65.5511 36.5234 63.7822C 36.5234 62.751 36.9495 61.8916 37.8018 61.2041C 38.6611 60.5094 39.7819 60.1621 41.1641 60.1621C 42.6393 60.1621 43.8174 60.5094 44.6982 61.2041C 45.5863 61.8988 46.0303 62.8011 46.0303 63.9111L 42.9258 63.9111C 42.9258 63.4671 42.7826 63.1019 42.4961 62.8154C 42.2096 62.5218 41.762 62.375 41.1533 62.375C 40.6305 62.375 40.2259 62.4932 39.9395 62.7295C 39.653 62.9658 39.5098 63.2666 39.5098 63.6318C 39.5098 63.9756 39.6709 64.2549 39.9932 64.4697C 40.3226 64.6774 40.874 64.86 41.6475 65.0176C 42.4209 65.168 43.0726 65.3398 43.6025 65.5332C 45.2425 66.1348 46.0625 67.1768 46.0625 68.6592C 46.0625 69.7191 45.6077 70.5785 44.6982 71.2373C 43.7887 71.889 42.6143 72.2148 41.1748 72.2148C 40.2008 72.2148 39.3343 72.043 38.5752 71.6992C 37.8232 71.3483 37.2324 70.8721 36.8027 70.2705C 36.373 69.6618 36.1582 69.0065 36.1582 68.3047L 39.1016 68.3047C 39.1302 68.8561 39.3343 69.2786 39.7139 69.5723C 40.0934 69.8659 40.6019 70.0127 41.2393 70.0127C 41.8337 70.0127 42.2812 69.9017 42.582 69.6797C 42.89 69.4505 43.0439 69.1533 43.0439 68.7881ZM 53.4209 72.2148C 51.7165 72.2148 50.3271 71.6921 49.2529 70.6465C 48.1859 69.6009 47.6523 68.208 47.6523 66.4678L 47.6523 66.167C 47.6523 64.9997 47.8779 63.9577 48.3291 63.041C 48.7803 62.1172 49.4176 61.4082 50.2412 60.9141C 51.0719 60.4128 52.0173 60.1621 53.0771 60.1621C 54.667 60.1621 55.9167 60.6634 56.8262 61.666C 57.7428 62.6686 58.2012 64.0902 58.2012 65.9307L 58.2012 67.1982L 50.7998 67.1982C 50.9001 67.9574 51.2008 68.5661 51.7021 69.0244C 52.2106 69.4827 52.8516 69.7119 53.625 69.7119C 54.821 69.7119 55.7555 69.2786 56.4287 68.4121L 57.9541 70.1201C 57.4886 70.779 56.8584 71.2946 56.0635 71.667C 55.2686 72.0322 54.3877 72.2148 53.4209 72.2148ZM 53.0664 62.6758C 52.4505 62.6758 51.9492 62.8835 51.5625 63.2988C 51.1829 63.7142 50.9395 64.3086 50.832 65.082L 55.1504 65.082L 55.1504 64.835C 55.1361 64.1475 54.9499 63.6175 54.5918 63.2451C 54.2337 62.8656 53.7253 62.6758 53.0664 62.6758ZM 64.9688 66.0811C 64.9688 64.9281 65.1908 63.9004 65.6348 62.998C 66.0788 62.0957 66.7161 61.3975 67.5469 60.9033C 68.3848 60.4092 69.3551 60.1621 70.458 60.1621C 72.0264 60.1621 73.3047 60.6419 74.293 61.6016C 75.2884 62.5612 75.8434 63.8646 75.958 65.5117L 75.9795 66.3066C 75.9795 68.0898 75.4818 69.5221 74.4863 70.6035C 73.4909 71.6777 72.1553 72.2148 70.4795 72.2148C 68.8037 72.2148 67.4645 71.6777 66.4619 70.6035C 65.4665 69.5293 64.9688 68.0684 64.9688 66.2207L 64.9688 66.0811ZM 68.0732 66.3066C 68.0732 67.4095 68.2809 68.2546 68.6963 68.8418C 69.1117 69.4219 69.7061 69.7119 70.4795 69.7119C 71.2314 69.7119 71.8187 69.4255 72.2412 68.8525C 72.6637 68.2725 72.875 67.3486 72.875 66.0811C 72.875 64.9997 72.6637 64.1618 72.2412 63.5674C 71.8187 62.973 71.2243 62.6758 70.458 62.6758C 69.6989 62.6758 69.1117 62.973 68.6963 63.5674C 68.2809 64.1546 68.0732 65.0677 68.0732 66.3066ZM 78.7402 72L 78.7402 62.6543L 77.0107 62.6543L 77.0107 60.377L 78.7402 60.377L 78.7402 59.3887C 78.7402 58.0853 79.1126 57.0755 79.8574 56.3594C 80.6094 55.6361 81.6585 55.2744 83.0049 55.2744C 83.4346 55.2744 83.9609 55.346 84.584 55.4893L 84.5518 57.8955C 84.2939 57.8311 83.9788 57.7988 83.6064 57.7988C 82.4391 57.7988 81.8555 58.3467 81.8555 59.4424L 81.8555 60.377L 84.165 60.377L 84.165 62.6543L 81.8555 62.6543L 81.8555 72L 78.7402 72ZM 6.02637 95.7119C 6.59928 95.7119 7.06478 95.5544 7.42285 95.2393C 7.78092 94.9242 7.96712 94.5052 7.98145 93.9824L 10.8926 93.9824C 10.8854 94.7702 10.6706 95.4935 10.248 96.1523C 9.82552 96.804 9.24544 97.3125 8.50781 97.6777C 7.77734 98.0358 6.9681 98.2148 6.08008 98.2148C 4.41862 98.2148 3.10807 97.6885 2.14844 96.6357C 1.1888 95.5758 0.708984 94.1149 0.708984 92.2529L 0.708984 92.0488C 0.708984 90.2585 1.18522 88.8298 2.1377 87.7627C 3.09017 86.6956 4.39714 86.1621 6.05859 86.1621C 7.51237 86.1621 8.67611 86.5775 9.5498 87.4082C 10.4307 88.2318 10.8783 89.3311 10.8926 90.7061L 7.98145 90.7061C 7.96712 90.1045 7.78092 89.6175 7.42285 89.2451C 7.06478 88.8656 6.59212 88.6758 6.00488 88.6758C 5.28158 88.6758 4.73372 88.9408 4.36133 89.4707C 3.99609 89.9935 3.81348 90.8457 3.81348 92.0273L 3.81348 92.3496C 3.81348 93.5456 3.99609 94.4049 4.36133 94.9277C 4.72656 95.4505 5.28158 95.7119 6.02637 95.7119ZM 12.1816 92.0811C 12.1816 90.9281 12.4036 89.9004 12.8477 88.998C 13.2917 88.0957 13.929 87.3975 14.7598 86.9033C 15.5977 86.4092 16.568 86.1621 17.6709 86.1621C 19.2393 86.1621 20.5176 86.6419 21.5059 87.6016C 22.5013 88.5612 23.0563 89.8646 23.1709 91.5117L 23.1924 92.3066C 23.1924 94.0898 22.6947 95.5221 21.6992 96.6035C 20.7038 97.6777 19.3682 98.2148 17.6924 98.2148C 16.0166 98.2148 14.6774 97.6777 13.6748 96.6035C 12.6794 95.5293 12.1816 94.0684 12.1816 92.2207L 12.1816 92.0811ZM 15.2861 92.3066C 15.2861 93.4095 15.4938 94.2546 15.9092 94.8418C 16.3245 95.4219 16.9189 95.7119 17.6924 95.7119C 18.4443 95.7119 19.0316 95.4255 19.4541 94.8525C 19.8766 94.2725 20.0879 93.3486 20.0879 92.0811C 20.0879 90.9997 19.8766 90.1618 19.4541 89.5674C 19.0316 88.973 18.4372 88.6758 17.6709 88.6758C 16.9118 88.6758 16.3245 88.973 15.9092 89.5674C 15.4938 90.1546 15.2861 91.0677 15.2861 92.3066ZM 28.0156 86.377L 28.1123 87.6768C 28.9359 86.667 30.0495 86.1621 31.4531 86.1621C 32.9499 86.1621 33.9775 86.7529 34.5361 87.9346C 35.3525 86.7529 36.5163 86.1621 38.0273 86.1621C 39.2878 86.1621 40.2259 86.5309 40.8418 87.2686C 41.4577 87.999 41.7656 89.1019 41.7656 90.5771L 41.7656 98L 38.6504 98L 38.6504 90.5879C 38.6504 89.929 38.5215 89.4492 38.2637 89.1484C 38.0059 88.8405 37.5511 88.6865 36.8994 88.6865C 35.9684 88.6865 35.3239 89.1305 34.9658 90.0186L 34.9766 98L 31.8721 98L 31.8721 90.5986C 31.8721 89.9255 31.7396 89.4385 31.4746 89.1377C 31.2096 88.8369 30.7585 88.6865 30.1211 88.6865C 29.2402 88.6865 28.6029 89.0518 28.209 89.7822L 28.209 98L 25.1045 98L 25.1045 86.377L 28.0156 86.377ZM 47.0723 86.377L 47.1689 87.6768C 47.9925 86.667 49.1061 86.1621 50.5098 86.1621C 52.0065 86.1621 53.0342 86.7529 53.5928 87.9346C 54.4092 86.7529 55.5729 86.1621 57.084 86.1621C 58.3444 86.1621 59.2826 86.5309 59.8984 87.2686C 60.5143 87.999 60.8223 89.1019 60.8223 90.5771L 60.8223 98L 57.707 98L 57.707 90.5879C 57.707 89.929 57.5781 89.4492 57.3203 89.1484C 57.0625 88.8405 56.6077 88.6865 55.9561 88.6865C 55.0251 88.6865 54.3805 89.1305 54.0225 90.0186L 54.0332 98L 50.9287 98L 50.9287 90.5986C 50.9287 89.9255 50.7962 89.4385 50.5312 89.1377C 50.2663 88.8369 49.8151 88.6865 49.1777 88.6865C 48.2969 88.6865 47.6595 89.0518 47.2656 89.7822L 47.2656 98L 44.1611 98L 44.1611 86.377L 47.0723 86.377ZM 70.1787 96.8184C 69.4124 97.7493 68.3525 98.2148 66.999 98.2148C 65.7529 98.2148 64.8005 97.8568 64.1416 97.1406C 63.4899 96.4245 63.1569 95.3753 63.1426 93.9932L 63.1426 86.377L 66.2471 86.377L 66.2471 93.8857C 66.2471 95.096 66.7985 95.7012 67.9014 95.7012C 68.9541 95.7012 69.6774 95.3359 70.0713 94.6055L 70.0713 86.377L 73.1865 86.377L 73.1865 98L 70.2646 98L 70.1787 96.8184ZM 78.3857 86.377L 78.4824 87.7197C 79.3132 86.6813 80.4268 86.1621 81.8232 86.1621C 83.055 86.1621 83.9717 86.5238 84.5732 87.2471C 85.1748 87.9704 85.4827 89.0518 85.4971 90.4912L 85.4971 98L 82.3926 98L 82.3926 90.5664C 82.3926 89.9076 82.2493 89.4313 81.9629 89.1377C 81.6764 88.8369 81.2002 88.6865 80.5342 88.6865C 79.6605 88.6865 79.0052 89.0589 78.5684 89.8037L 78.5684 98L 75.4639 98L 75.4639 86.377L 78.3857 86.377ZM 91.1367 98L 88.0215 98L 88.0215 86.377L 91.1367 86.377L 91.1367 98ZM 87.8389 83.3691C 87.8389 82.9036 87.9928 82.5205 88.3008 82.2197C 88.6159 81.9189 89.042 81.7686 89.5791 81.7686C 90.109 81.7686 90.5316 81.9189 90.8467 82.2197C 91.1618 82.5205 91.3193 82.9036 91.3193 83.3691C 91.3193 83.8418 91.1582 84.2285 90.8359 84.5293C 90.5208 84.8301 90.1019 84.9805 89.5791 84.9805C 89.0563 84.9805 88.6338 84.8301 88.3115 84.5293C 87.9964 84.2285 87.8389 83.8418 87.8389 83.3691ZM 97.4209 83.5195L 97.4209 86.377L 99.4082 86.377L 99.4082 88.6543L 97.4209 88.6543L 97.4209 94.4551C 97.4209 94.8848 97.5033 95.1927 97.668 95.3789C 97.8327 95.5651 98.1478 95.6582 98.6133 95.6582C 98.957 95.6582 99.2614 95.6331 99.5264 95.583L 99.5264 97.9355C 98.9176 98.1217 98.291 98.2148 97.6465 98.2148C 95.4694 98.2148 94.3594 97.1156 94.3164 94.917L 94.3164 88.6543L 92.6191 88.6543L 92.6191 86.377L 94.3164 86.377L 94.3164 83.5195L 97.4209 83.5195ZM 105.478 93.6064L 107.626 86.377L 110.956 86.377L 106.283 99.8047L 106.025 100.417C 105.331 101.935 104.185 102.694 102.588 102.694C 102.137 102.694 101.678 102.626 101.213 102.49L 101.213 100.138L 101.686 100.148C 102.273 100.148 102.71 100.059 102.996 99.8799C 103.29 99.7008 103.519 99.4036 103.684 98.9883L 104.049 98.0322L 99.9775 86.377L 103.318 86.377L 105.478 93.6064ZM 121.376 83.5195L 121.376 86.377L 123.363 86.377L 123.363 88.6543L 121.376 88.6543L 121.376 94.4551C 121.376 94.8848 121.458 95.1927 121.623 95.3789C 121.788 95.5651 122.103 95.6582 122.568 95.6582C 122.912 95.6582 123.216 95.6331 123.481 95.583L 123.481 97.9355C 122.873 98.1217 122.246 98.2148 121.602 98.2148C 119.424 98.2148 118.314 97.1156 118.271 94.917L 118.271 88.6543L 116.574 88.6543L 116.574 86.377L 118.271 86.377L 118.271 83.5195L 121.376 83.5195ZM 128.122 87.6445C 128.946 86.6562 129.98 86.1621 131.227 86.1621C 133.747 86.1621 135.026 87.6266 135.062 90.5557L 135.062 98L 131.957 98L 131.957 90.6416C 131.957 89.9756 131.814 89.485 131.527 89.1699C 131.241 88.8477 130.765 88.6865 130.099 88.6865C 129.189 88.6865 128.53 89.0374 128.122 89.7393L 128.122 98L 125.018 98L 125.018 81.5L 128.122 81.5L 128.122 87.6445ZM 144.139 98C 143.995 97.7207 143.892 97.3734 143.827 96.958C 143.075 97.7959 142.098 98.2148 140.895 98.2148C 139.756 98.2148 138.811 97.8854 138.059 97.2266C 137.314 96.5677 136.941 95.737 136.941 94.7344C 136.941 93.5026 137.396 92.5573 138.306 91.8984C 139.222 91.2396 140.544 90.9066 142.27 90.8994L 143.698 90.8994L 143.698 90.2334C 143.698 89.6963 143.559 89.2666 143.279 88.9443C 143.007 88.6221 142.574 88.4609 141.979 88.4609C 141.457 88.4609 141.045 88.5863 140.744 88.8369C 140.451 89.0876 140.304 89.4313 140.304 89.8682L 137.199 89.8682C 137.199 89.195 137.407 88.5719 137.822 87.999C 138.238 87.4261 138.825 86.9785 139.584 86.6562C 140.343 86.3268 141.195 86.1621 142.141 86.1621C 143.573 86.1621 144.708 86.5238 145.546 87.2471C 146.391 87.9632 146.813 88.973 146.813 90.2764L 146.813 95.3145C 146.821 96.4173 146.975 97.2516 147.275 97.8174L 147.275 98L 144.139 98ZM 141.571 95.8408C 142.03 95.8408 142.452 95.7406 142.839 95.54C 143.226 95.3324 143.512 95.0566 143.698 94.7129L 143.698 92.7148L 142.538 92.7148C 140.984 92.7148 140.157 93.252 140.057 94.3262L 140.046 94.5088C 140.046 94.8955 140.182 95.2142 140.454 95.4648C 140.726 95.7155 141.099 95.8408 141.571 95.8408ZM 152.915 83.5195L 152.915 86.377L 154.902 86.377L 154.902 88.6543L 152.915 88.6543L 152.915 94.4551C 152.915 94.8848 152.997 95.1927 153.162 95.3789C 153.327 95.5651 153.642 95.6582 154.107 95.6582C 154.451 95.6582 154.756 95.6331 155.021 95.583L 155.021 97.9355C 154.412 98.1217 153.785 98.2148 153.141 98.2148C 150.964 98.2148 149.854 97.1156 149.811 94.917L 149.811 88.6543L 148.113 88.6543L 148.113 86.377L 149.811 86.377L 149.811 83.5195L 152.915 83.5195ZM 11.6553 118.296C 11.6553 120.086 11.2471 121.522 10.4307 122.604C 9.62142 123.678 8.52572 124.215 7.14355 124.215C 5.96908 124.215 5.02018 123.807 4.29688 122.99L 4.29688 128.469L 1.19238 128.469L 1.19238 112.377L 4.07129 112.377L 4.17871 113.516C 4.93066 112.613 5.91178 112.162 7.12207 112.162C 8.55436 112.162 9.66797 112.692 10.4629 113.752C 11.2578 114.812 11.6553 116.273 11.6553 118.135L 11.6553 118.296ZM 8.55078 118.07C 8.55078 116.989 8.35742 116.155 7.9707 115.567C 7.59115 114.98 7.03613 114.687 6.30566 114.687C 5.33171 114.687 4.66211 115.059 4.29688 115.804L 4.29688 120.562C 4.67643 121.329 5.35319 121.712 6.32715 121.712C 7.80957 121.712 8.55078 120.498 8.55078 118.07ZM 20.1201 115.288C 19.6976 115.231 19.3252 115.202 19.0029 115.202C 17.8285 115.202 17.0586 115.6 16.6934 116.395L 16.6934 124L 13.5889 124L 13.5889 112.377L 16.5215 112.377L 16.6074 113.763C 17.2305 112.696 18.0934 112.162 19.1963 112.162C 19.54 112.162 19.8623 112.209 20.1631 112.302L 20.1201 115.288ZM 20.7539 118.081C 20.7539 116.928 20.9759 115.9 21.4199 114.998C 21.8639 114.096 22.5013 113.397 23.332 112.903C 24.1699 112.409 25.1403 112.162 26.2432 112.162C 27.8115 112.162 29.0898 112.642 30.0781 113.602C 31.0736 114.561 31.6286 115.865 31.7432 117.512L 31.7646 118.307C 31.7646 120.09 31.2669 121.522 30.2715 122.604C 29.276 123.678 27.9404 124.215 26.2646 124.215C 24.5889 124.215 23.2497 123.678 22.2471 122.604C 21.2516 121.529 20.7539 120.068 20.7539 118.221L 20.7539 118.081ZM 23.8584 118.307C 23.8584 119.41 24.0661 120.255 24.4814 120.842C 24.8968 121.422 25.4912 121.712 26.2646 121.712C 27.0166 121.712 27.6038 121.425 28.0264 120.853C 28.4489 120.272 28.6602 119.349 28.6602 118.081C 28.6602 117 28.4489 116.162 28.0264 115.567C 27.6038 114.973 27.0094 114.676 26.2432 114.676C 25.484 114.676 24.8968 114.973 24.4814 115.567C 24.0661 116.155 23.8584 117.068 23.8584 118.307ZM 37.8555 120.208L 40.0146 112.377L 43.2588 112.377L 39.3379 124L 36.373 124L 32.4521 112.377L 35.6963 112.377L 37.8555 120.208ZM 47.9102 124L 44.7949 124L 44.7949 112.377L 47.9102 112.377L 47.9102 124ZM 44.6123 109.369C 44.6123 108.904 44.7663 108.521 45.0742 108.22C 45.3893 107.919 45.8154 107.769 46.3525 107.769C 46.8825 107.769 47.305 107.919 47.6201 108.22C 47.9352 108.521 48.0928 108.904 48.0928 109.369C 48.0928 109.842 47.9316 110.229 47.6094 110.529C 47.2943 110.83 46.8753 110.98 46.3525 110.98C 45.8298 110.98 45.4072 110.83 45.085 110.529C 44.7699 110.229 44.6123 109.842 44.6123 109.369ZM 49.9941 118.103C 49.9941 116.291 50.3988 114.848 51.208 113.773C 52.0244 112.699 53.138 112.162 54.5488 112.162C 55.6803 112.162 56.6149 112.585 57.3525 113.43L 57.3525 107.5L 60.4678 107.5L 60.4678 124L 57.6641 124L 57.5137 122.765C 56.7402 123.731 55.7448 124.215 54.5273 124.215C 53.1595 124.215 52.0602 123.678 51.2295 122.604C 50.4059 121.522 49.9941 120.022 49.9941 118.103ZM 53.0986 118.328C 53.0986 119.417 53.2884 120.251 53.668 120.831C 54.0475 121.411 54.599 121.701 55.3223 121.701C 56.2819 121.701 56.9587 121.297 57.3525 120.487L 57.3525 115.9C 56.9658 115.091 56.2962 114.687 55.3438 114.687C 53.847 114.687 53.0986 115.9 53.0986 118.328ZM 68.2236 124.215C 66.5192 124.215 65.1299 123.692 64.0557 122.646C 62.9886 121.601 62.4551 120.208 62.4551 118.468L 62.4551 118.167C 62.4551 117 62.6807 115.958 63.1318 115.041C 63.583 114.117 64.2204 113.408 65.0439 112.914C 65.8747 112.413 66.82 112.162 67.8799 112.162C 69.4697 112.162 70.7194 112.663 71.6289 113.666C 72.5456 114.669 73.0039 116.09 73.0039 117.931L 73.0039 119.198L 65.6025 119.198C 65.7028 119.957 66.0036 120.566 66.5049 121.024C 67.0133 121.483 67.6543 121.712 68.4277 121.712C 69.6237 121.712 70.5583 121.279 71.2314 120.412L 72.7568 122.12C 72.2913 122.779 71.6611 123.295 70.8662 123.667C 70.0713 124.032 69.1904 124.215 68.2236 124.215ZM 67.8691 114.676C 67.2533 114.676 66.752 114.883 66.3652 115.299C 65.9857 115.714 65.7422 116.309 65.6348 117.082L 69.9531 117.082L 69.9531 116.835C 69.9388 116.147 69.7526 115.618 69.3945 115.245C 69.0365 114.866 68.528 114.676 67.8691 114.676ZM 81.0713 120.788C 81.0713 120.409 80.8815 120.111 80.502 119.896C 80.1296 119.674 79.528 119.478 78.6973 119.306C 75.9329 118.726 74.5508 117.551 74.5508 115.782C 74.5508 114.751 74.9769 113.892 75.8291 113.204C 76.6885 112.509 77.8092 112.162 79.1914 112.162C 80.6667 112.162 81.8447 112.509 82.7256 113.204C 83.6136 113.899 84.0576 114.801 84.0576 115.911L 80.9531 115.911C 80.9531 115.467 80.8099 115.102 80.5234 114.815C 80.237 114.522 79.7894 114.375 79.1807 114.375C 78.6579 114.375 78.2533 114.493 77.9668 114.729C 77.6803 114.966 77.5371 115.267 77.5371 115.632C 77.5371 115.976 77.6982 116.255 78.0205 116.47C 78.3499 116.677 78.9014 116.86 79.6748 117.018C 80.4482 117.168 81.0999 117.34 81.6299 117.533C 83.2699 118.135 84.0898 119.177 84.0898 120.659C 84.0898 121.719 83.6351 122.578 82.7256 123.237C 81.8161 123.889 80.6416 124.215 79.2021 124.215C 78.2282 124.215 77.3617 124.043 76.6025 123.699C 75.8506 123.348 75.2598 122.872 74.8301 122.271C 74.4004 121.662 74.1855 121.007 74.1855 120.305L 77.1289 120.305C 77.1576 120.856 77.3617 121.279 77.7412 121.572C 78.1208 121.866 78.6292 122.013 79.2666 122.013C 79.861 122.013 80.3086 121.902 80.6094 121.68C 80.9173 121.451 81.0713 121.153 81.0713 120.788Z"/>
<path id="path1_fill" fill-rule="evenodd" d="M 281.751 120.956C 281.751 147.639 263.432 169.704 240.173 183.879C 230.621 189.694 224.204 198.979 222.509 209.438C 220.887 219.496 223.9 222.761 214.573 214.133C 205.73 205.959 193.403 202.097 181.035 203.53C 124.852 210.128 40.2629 183.444 40.2629 120.962C 40.2629 9.11892 281.074 10.8106 281.751 120.956ZM 161 0C 72.0791 0 0 54.1486 0 120.956C 0 206.674 104.565 250.086 186.106 240.443C 220.694 272.425 261.968 278.154 301.875 279L 301.875 271.177C 277.923 260.331 258.074 241.101 262.31 214.96C 298.724 192.787 322 158.906 322 120.956C 322 44.1487 235.616 0 161 0Z"/>
</defs>
</svg>
