<svg width="322" height="279" viewBox="0 0 322 279" version="1.1" xmlns="http://www.w3.org/2000/svg" xmlns:xlink="http://www.w3.org/1999/xlink">
<title>Group 3</title>
<desc>Created using Figma</desc>
<g id="Canvas" transform="translate(-85 1678)">
<g id="Group 3">
<g id="I love my library because I can meet other children">
<use xlink:href="#path0_fill" transform="translate(167 -1600)" fill="#EB5757"/>
</g>
<g id="Vector">
<use xlink:href="#path1_fill" transform="translate(85 -1678)" fill="#EB5757"/>
</g>
</g>
</g>
<defs>
<path id="path0_fill" d="M 4.82324 20L 1.60059 20L 1.60059 4.35938L 4.82324 4.35938L 4.82324 20ZM 16.3711 20L 13.2559 20L 13.2559 3.5L 16.3711 3.5L 16.3711 20ZM 18.4551 14.0811C 18.4551 12.9281 18.6771 11.9004 19.1211 10.998C 19.5651 10.0957 20.2025 9.39746 21.0332 8.90332C 21.8711 8.40918 22.8415 8.16211 23.9443 8.16211C 25.5127 8.16211 26.791 8.64193 27.7793 9.60156C 28.7747 10.5612 29.3298 11.8646 29.4443 13.5117L 29.4658 14.3066C 29.4658 16.0898 28.9681 17.5221 27.9727 18.6035C 26.9772 19.6777 25.6416 20.2148 23.9658 20.2148C 22.29 20.2148 20.9508 19.6777 19.9482 18.6035C 18.9528 17.5293 18.4551 16.0684 18.4551 14.2207L 18.4551 14.0811ZM 21.5596 14.3066C 21.5596 15.4095 21.7673 16.2546 22.1826 16.8418C 22.598 17.4219 23.1924 17.7119 23.9658 17.7119C 24.7178 17.7119 25.305 17.4255 25.7275 16.8525C 26.1501 16.2725 26.3613 15.3486 26.3613 14.0811C 26.3613 12.9997 26.1501 12.1618 25.7275 11.5674C 25.305 10.973 24.7106 10.6758 23.9443 10.6758C 23.1852 10.6758 22.598 10.973 22.1826 11.5674C 21.7673 12.1546 21.5596 13.0677 21.5596 14.3066ZM 35.5566 16.208L 37.7158 8.37695L 40.96 8.37695L 37.0391 20L 34.0742 20L 30.1533 8.37695L 33.3975 8.37695L 35.5566 16.208ZM 47.5342 20.2148C 45.8298 20.2148 44.4404 19.6921 43.3662 18.6465C 42.2992 17.6009 41.7656 16.208 41.7656 14.4678L 41.7656 14.167C 41.7656 12.9997 41.9912 11.9577 42.4424 11.041C 42.8936 10.1172 43.5309 9.4082 44.3545 8.91406C 45.1852 8.41276 46.1305 8.16211 47.1904 8.16211C 48.7803 8.16211 50.0299 8.66341 50.9395 9.66602C 51.8561 10.6686 52.3145 12.0902 52.3145 13.9307L 52.3145 15.1982L 44.9131 15.1982C 45.0133 15.9574 45.3141 16.5661 45.8154 17.0244C 46.3239 17.4827 46.9648 17.7119 47.7383 17.7119C 48.9342 17.7119 49.8688 17.2786 50.542 16.4121L 52.0674 18.1201C 51.6019 18.779 50.9717 19.2946 50.1768 19.667C 49.3818 20.0322 48.501 20.2148 47.5342 20.2148ZM 47.1797 10.6758C 46.5638 10.6758 46.0625 10.8835 45.6758 11.2988C 45.2962 11.7142 45.0527 12.3086 44.9453 13.082L 49.2637 13.082L 49.2637 12.835C 49.2493 12.1475 49.0632 11.6175 48.7051 11.2451C 48.347 10.8656 47.8385 10.6758 47.1797 10.6758ZM 62.4766 8.37695L 62.5732 9.67676C 63.3968 8.66699 64.5104 8.16211 65.9141 8.16211C 67.4108 8.16211 68.4385 8.75293 68.9971 9.93457C 69.8135 8.75293 70.9772 8.16211 72.4883 8.16211C 73.7487 8.16211 74.6868 8.53092 75.3027 9.26855C 75.9186 9.99902 76.2266 11.1019 76.2266 12.5771L 76.2266 20L 73.1113 20L 73.1113 12.5879C 73.1113 11.929 72.9824 11.4492 72.7246 11.1484C 72.4668 10.8405 72.012 10.6865 71.3604 10.6865C 70.4294 10.6865 69.7848 11.1305 69.4268 12.0186L 69.4375 20L 66.333 20L 66.333 12.5986C 66.333 11.9255 66.2005 11.4385 65.9355 11.1377C 65.6706 10.8369 65.2194 10.6865 64.582 10.6865C 63.7012 10.6865 63.0638 11.0518 62.6699 11.7822L 62.6699 20L 59.5654 20L 59.5654 8.37695L 62.4766 8.37695ZM 82.9619 15.6064L 85.1104 8.37695L 88.4404 8.37695L 83.7676 21.8047L 83.5098 22.417C 82.8151 23.9352 81.6693 24.6943 80.0723 24.6943C 79.6211 24.6943 79.1628 24.6263 78.6973 24.4902L 78.6973 22.1377L 79.1699 22.1484C 79.7572 22.1484 80.194 22.0589 80.4805 21.8799C 80.7741 21.7008 81.0033 21.4036 81.168 20.9883L 81.5332 20.0322L 77.4619 8.37695L 80.8027 8.37695L 82.9619 15.6064ZM 98.4199 20L 95.3047 20L 95.3047 3.5L 98.4199 3.5L 98.4199 20ZM 104.264 20L 101.148 20L 101.148 8.37695L 104.264 8.37695L 104.264 20ZM 100.966 5.36914C 100.966 4.90365 101.12 4.52051 101.428 4.21973C 101.743 3.91895 102.169 3.76855 102.706 3.76855C 103.236 3.76855 103.659 3.91895 103.974 4.21973C 104.289 4.52051 104.446 4.90365 104.446 5.36914C 104.446 5.8418 104.285 6.22852 103.963 6.5293C 103.648 6.83008 103.229 6.98047 102.706 6.98047C 102.183 6.98047 101.761 6.83008 101.438 6.5293C 101.123 6.22852 100.966 5.8418 100.966 5.36914ZM 117.305 14.2959C 117.305 16.1579 116.907 17.6117 116.112 18.6572C 115.317 19.6956 114.207 20.2148 112.782 20.2148C 111.522 20.2148 110.516 19.7314 109.764 18.7646L 109.624 20L 106.831 20L 106.831 3.5L 109.936 3.5L 109.936 9.41895C 110.652 8.58105 111.593 8.16211 112.761 8.16211C 114.179 8.16211 115.289 8.6849 116.091 9.73047C 116.9 10.7689 117.305 12.2334 117.305 14.124L 117.305 14.2959ZM 114.2 14.0703C 114.2 12.8958 114.014 12.04 113.642 11.5029C 113.269 10.9587 112.714 10.6865 111.977 10.6865C 110.988 10.6865 110.308 11.0911 109.936 11.9004L 109.936 16.4873C 110.315 17.3037 111.003 17.7119 111.998 17.7119C 113.001 17.7119 113.66 17.2178 113.975 16.2295C 114.125 15.7568 114.2 15.0371 114.2 14.0703ZM 125.759 11.2881C 125.336 11.2308 124.964 11.2021 124.642 11.2021C 123.467 11.2021 122.697 11.5996 122.332 12.3945L 122.332 20L 119.228 20L 119.228 8.37695L 122.16 8.37695L 122.246 9.7627C 122.869 8.69564 123.732 8.16211 124.835 8.16211C 125.179 8.16211 125.501 8.20866 125.802 8.30176L 125.759 11.2881ZM 133.676 20C 133.533 19.7207 133.429 19.3734 133.364 18.958C 132.612 19.7959 131.635 20.2148 130.432 20.2148C 129.293 20.2148 128.348 19.8854 127.596 19.2266C 126.851 18.5677 126.479 17.737 126.479 16.7344C 126.479 15.5026 126.933 14.5573 127.843 13.8984C 128.759 13.2396 130.081 12.9066 131.807 12.8994L 133.235 12.8994L 133.235 12.2334C 133.235 11.6963 133.096 11.2666 132.816 10.9443C 132.544 10.6221 132.111 10.4609 131.517 10.4609C 130.994 10.4609 130.582 10.5863 130.281 10.8369C 129.988 11.0876 129.841 11.4313 129.841 11.8682L 126.736 11.8682C 126.736 11.195 126.944 10.5719 127.359 9.99902C 127.775 9.42611 128.362 8.97852 129.121 8.65625C 129.88 8.32682 130.732 8.16211 131.678 8.16211C 133.11 8.16211 134.245 8.52376 135.083 9.24707C 135.928 9.96322 136.351 10.973 136.351 12.2764L 136.351 17.3145C 136.358 18.4173 136.512 19.2516 136.812 19.8174L 136.812 20L 133.676 20ZM 131.108 17.8408C 131.567 17.8408 131.989 17.7406 132.376 17.54C 132.763 17.3324 133.049 17.0566 133.235 16.7129L 133.235 14.7148L 132.075 14.7148C 130.521 14.7148 129.694 15.252 129.594 16.3262L 129.583 16.5088C 129.583 16.8955 129.719 17.2142 129.991 17.4648C 130.263 17.7155 130.636 17.8408 131.108 17.8408ZM 145.267 11.2881C 144.844 11.2308 144.472 11.2021 144.149 11.2021C 142.975 11.2021 142.205 11.5996 141.84 12.3945L 141.84 20L 138.735 20L 138.735 8.37695L 141.668 8.37695L 141.754 9.7627C 142.377 8.69564 143.24 8.16211 144.343 8.16211C 144.687 8.16211 145.009 8.20866 145.31 8.30176L 145.267 11.2881ZM 151.304 15.6064L 153.452 8.37695L 156.782 8.37695L 152.109 21.8047L 151.852 22.417C 151.157 23.9352 150.011 24.6943 148.414 24.6943C 147.963 24.6943 147.505 24.6263 147.039 24.4902L 147.039 22.1377L 147.512 22.1484C 148.099 22.1484 148.536 22.0589 148.822 21.8799C 149.116 21.7008 149.345 21.4036 149.51 20.9883L 149.875 20.0322L 145.804 8.37695L 149.145 8.37695L 151.304 15.6064ZM 11.666 40.2959C 11.666 42.1579 11.2686 43.6117 10.4736 44.6572C 9.67871 45.6956 8.56868 46.2148 7.14355 46.2148C 5.88314 46.2148 4.87695 45.7314 4.125 44.7646L 3.98535 46L 1.19238 46L 1.19238 29.5L 4.29688 29.5L 4.29688 35.4189C 5.01302 34.5811 5.95475 34.1621 7.12207 34.1621C 8.54004 34.1621 9.65007 34.6849 10.4521 35.7305C 11.2614 36.7689 11.666 38.2334 11.666 40.124L 11.666 40.2959ZM 8.56152 40.0703C 8.56152 38.8958 8.37533 38.04 8.00293 37.5029C 7.63053 36.9587 7.07552 36.6865 6.33789 36.6865C 5.34961 36.6865 4.66927 37.0911 4.29688 37.9004L 4.29688 42.4873C 4.67643 43.3037 5.36393 43.7119 6.35938 43.7119C 7.36198 43.7119 8.02083 43.2178 8.33594 42.2295C 8.48633 41.7568 8.56152 41.0371 8.56152 40.0703ZM 18.9385 46.2148C 17.234 46.2148 15.8447 45.6921 14.7705 44.6465C 13.7035 43.6009 13.1699 42.208 13.1699 40.4678L 13.1699 40.167C 13.1699 38.9997 13.3955 37.9577 13.8467 37.041C 14.2979 36.1172 14.9352 35.4082 15.7588 34.9141C 16.5895 34.4128 17.5348 34.1621 18.5947 34.1621C 20.1846 34.1621 21.4342 34.6634 22.3438 35.666C 23.2604 36.6686 23.7188 38.0902 23.7188 39.9307L 23.7188 41.1982L 16.3174 41.1982C 16.4176 41.9574 16.7184 42.5661 17.2197 43.0244C 17.7282 43.4827 18.3691 43.7119 19.1426 43.7119C 20.3385 43.7119 21.2731 43.2786 21.9463 42.4121L 23.4717 44.1201C 23.0062 44.779 22.376 45.2946 21.5811 45.667C 20.7861 46.0322 19.9053 46.2148 18.9385 46.2148ZM 18.584 36.6758C 17.9681 36.6758 17.4668 36.8835 17.0801 37.2988C 16.7005 37.7142 16.457 38.3086 16.3496 39.082L 20.668 39.082L 20.668 38.835C 20.6536 38.1475 20.4674 37.6175 20.1094 37.2451C 19.7513 36.8656 19.2428 36.6758 18.584 36.6758ZM 30.3252 43.7119C 30.8981 43.7119 31.3636 43.5544 31.7217 43.2393C 32.0798 42.9242 32.266 42.5052 32.2803 41.9824L 35.1914 41.9824C 35.1842 42.7702 34.9694 43.4935 34.5469 44.1523C 34.1243 44.804 33.5443 45.3125 32.8066 45.6777C 32.0762 46.0358 31.2669 46.2148 30.3789 46.2148C 28.7174 46.2148 27.4069 45.6885 26.4473 44.6357C 25.4876 43.5758 25.0078 42.1149 25.0078 40.2529L 25.0078 40.0488C 25.0078 38.2585 25.484 36.8298 26.4365 35.7627C 27.389 34.6956 28.696 34.1621 30.3574 34.1621C 31.8112 34.1621 32.9749 34.5775 33.8486 35.4082C 34.7295 36.2318 35.1771 37.3311 35.1914 38.7061L 32.2803 38.7061C 32.266 38.1045 32.0798 37.6175 31.7217 37.2451C 31.3636 36.8656 30.891 36.6758 30.3037 36.6758C 29.5804 36.6758 29.0326 36.9408 28.6602 37.4707C 28.2949 37.9935 28.1123 38.8457 28.1123 40.0273L 28.1123 40.3496C 28.1123 41.5456 28.2949 42.4049 28.6602 42.9277C 29.0254 43.4505 29.5804 43.7119 30.3252 43.7119ZM 43.6992 46C 43.556 45.7207 43.4521 45.3734 43.3877 44.958C 42.6357 45.7959 41.6582 46.2148 40.4551 46.2148C 39.3164 46.2148 38.3711 45.8854 37.6191 45.2266C 36.8743 44.5677 36.502 43.737 36.502 42.7344C 36.502 41.5026 36.9567 40.5573 37.8662 39.8984C 38.7829 39.2396 40.1042 38.9066 41.8301 38.8994L 43.2588 38.8994L 43.2588 38.2334C 43.2588 37.6963 43.1191 37.2666 42.8398 36.9443C 42.5677 36.6221 42.1344 36.4609 41.54 36.4609C 41.0173 36.4609 40.6055 36.5863 40.3047 36.8369C 40.0111 37.0876 39.8643 37.4313 39.8643 37.8682L 36.7598 37.8682C 36.7598 37.195 36.9674 36.5719 37.3828 35.999C 37.7982 35.4261 38.3854 34.9785 39.1445 34.6562C 39.9036 34.3268 40.7559 34.1621 41.7012 34.1621C 43.1335 34.1621 44.2686 34.5238 45.1064 35.2471C 45.9515 35.9632 46.374 36.973 46.374 38.2764L 46.374 43.3145C 46.3812 44.4173 46.5352 45.2516 46.8359 45.8174L 46.8359 46L 43.6992 46ZM 41.1318 43.8408C 41.5902 43.8408 42.0127 43.7406 42.3994 43.54C 42.7861 43.3324 43.0726 43.0566 43.2588 42.7129L 43.2588 40.7148L 42.0986 40.7148C 40.5446 40.7148 39.7174 41.252 39.6172 42.3262L 39.6064 42.5088C 39.6064 42.8955 39.7425 43.2142 40.0146 43.4648C 40.2868 43.7155 40.6592 43.8408 41.1318 43.8408ZM 55.7197 44.8184C 54.9535 45.7493 53.8936 46.2148 52.54 46.2148C 51.2939 46.2148 50.3415 45.8568 49.6826 45.1406C 49.0309 44.4245 48.6979 43.3753 48.6836 41.9932L 48.6836 34.377L 51.7881 34.377L 51.7881 41.8857C 51.7881 43.096 52.3395 43.7012 53.4424 43.7012C 54.4951 43.7012 55.2184 43.3359 55.6123 42.6055L 55.6123 34.377L 58.7275 34.377L 58.7275 46L 55.8057 46L 55.7197 44.8184ZM 67.3643 42.7881C 67.3643 42.4085 67.1745 42.1113 66.7949 41.8965C 66.4225 41.6745 65.821 41.4775 64.9902 41.3057C 62.2259 40.7256 60.8438 39.5511 60.8438 37.7822C 60.8438 36.751 61.2699 35.8916 62.1221 35.2041C 62.9814 34.5094 64.1022 34.1621 65.4844 34.1621C 66.9596 34.1621 68.1377 34.5094 69.0186 35.2041C 69.9066 35.8988 70.3506 36.8011 70.3506 37.9111L 67.2461 37.9111C 67.2461 37.4671 67.1029 37.1019 66.8164 36.8154C 66.5299 36.5218 66.0824 36.375 65.4736 36.375C 64.9508 36.375 64.5462 36.4932 64.2598 36.7295C 63.9733 36.9658 63.8301 37.2666 63.8301 37.6318C 63.8301 37.9756 63.9912 38.2549 64.3135 38.4697C 64.6429 38.6774 65.1943 38.86 65.9678 39.0176C 66.7412 39.168 67.3929 39.3398 67.9229 39.5332C 69.5628 40.1348 70.3828 41.1768 70.3828 42.6592C 70.3828 43.7191 69.9281 44.5785 69.0186 45.2373C 68.109 45.889 66.9346 46.2148 65.4951 46.2148C 64.5212 46.2148 63.6546 46.043 62.8955 45.6992C 62.1436 45.3483 61.5527 44.8721 61.123 44.2705C 60.6934 43.6618 60.4785 43.0065 60.4785 42.3047L 63.4219 42.3047C 63.4505 42.8561 63.6546 43.2786 64.0342 43.5723C 64.4137 43.8659 64.9222 44.0127 65.5596 44.0127C 66.154 44.0127 66.6016 43.9017 66.9023 43.6797C 67.2103 43.4505 67.3643 43.1533 67.3643 42.7881ZM 77.7412 46.2148C 76.0368 46.2148 74.6475 45.6921 73.5732 44.6465C 72.5062 43.6009 71.9727 42.208 71.9727 40.4678L 71.9727 40.167C 71.9727 38.9997 72.1982 37.9577 72.6494 37.041C 73.1006 36.1172 73.738 35.4082 74.5615 34.9141C 75.3923 34.4128 76.3376 34.1621 77.3975 34.1621C 78.9873 34.1621 80.237 34.6634 81.1465 35.666C 82.0632 36.6686 82.5215 38.0902 82.5215 39.9307L 82.5215 41.1982L 75.1201 41.1982C 75.2204 41.9574 75.5212 42.5661 76.0225 43.0244C 76.5309 43.4827 77.1719 43.7119 77.9453 43.7119C 79.1413 43.7119 80.0758 43.2786 80.749 42.4121L 82.2744 44.1201C 81.8089 44.779 81.1787 45.2946 80.3838 45.667C 79.5889 46.0322 78.708 46.2148 77.7412 46.2148ZM 77.3867 36.6758C 76.7708 36.6758 76.2695 36.8835 75.8828 37.2988C 75.5033 37.7142 75.2598 38.3086 75.1523 39.082L 79.4707 39.082L 79.4707 38.835C 79.4564 38.1475 79.2702 37.6175 78.9121 37.2451C 78.554 36.8656 78.0456 36.6758 77.3867 36.6758ZM 93.4033 46L 90.1807 46L 90.1807 30.3594L 93.4033 30.3594L 93.4033 46ZM 106.509 43.7119C 107.082 43.7119 107.547 43.5544 107.905 43.2393C 108.263 42.9242 108.45 42.5052 108.464 41.9824L 111.375 41.9824C 111.368 42.7702 111.153 43.4935 110.73 44.1523C 110.308 44.804 109.728 45.3125 108.99 45.6777C 108.26 46.0358 107.451 46.2148 106.562 46.2148C 104.901 46.2148 103.59 45.6885 102.631 44.6357C 101.671 43.5758 101.191 42.1149 101.191 40.2529L 101.191 40.0488C 101.191 38.2585 101.668 36.8298 102.62 35.7627C 103.573 34.6956 104.88 34.1621 106.541 34.1621C 107.995 34.1621 109.159 34.5775 110.032 35.4082C 110.913 36.2318 111.361 37.3311 111.375 38.7061L 108.464 38.7061C 108.45 38.1045 108.263 37.6175 107.905 37.2451C 107.547 36.8656 107.075 36.6758 106.487 36.6758C 105.764 36.6758 105.216 36.9408 104.844 37.4707C 104.479 37.9935 104.296 38.8457 104.296 40.0273L 104.296 40.3496C 104.296 41.5456 104.479 42.4049 104.844 42.9277C 105.209 43.4505 105.764 43.7119 106.509 43.7119ZM 119.883 46C 119.74 45.7207 119.636 45.3734 119.571 44.958C 118.819 45.7959 117.842 46.2148 116.639 46.2148C 115.5 46.2148 114.555 45.8854 113.803 45.2266C 113.058 44.5677 112.686 43.737 112.686 42.7344C 112.686 41.5026 113.14 40.5573 114.05 39.8984C 114.966 39.2396 116.288 38.9066 118.014 38.8994L 119.442 38.8994L 119.442 38.2334C 119.442 37.6963 119.303 37.2666 119.023 36.9443C 118.751 36.6221 118.318 36.4609 117.724 36.4609C 117.201 36.4609 116.789 36.5863 116.488 36.8369C 116.195 37.0876 116.048 37.4313 116.048 37.8682L 112.943 37.8682C 112.943 37.195 113.151 36.5719 113.566 35.999C 113.982 35.4261 114.569 34.9785 115.328 34.6562C 116.087 34.3268 116.939 34.1621 117.885 34.1621C 119.317 34.1621 120.452 34.5238 121.29 35.2471C 122.135 35.9632 122.558 36.973 122.558 38.2764L 122.558 43.3145C 122.565 44.4173 122.719 45.2516 123.02 45.8174L 123.02 46L 119.883 46ZM 117.315 43.8408C 117.774 43.8408 118.196 43.7406 118.583 43.54C 118.97 43.3324 119.256 43.0566 119.442 42.7129L 119.442 40.7148L 118.282 40.7148C 116.728 40.7148 115.901 41.252 115.801 42.3262L 115.79 42.5088C 115.79 42.8955 115.926 43.2142 116.198 43.4648C 116.47 43.7155 116.843 43.8408 117.315 43.8408ZM 127.8 34.377L 127.896 35.7197C 128.727 34.6813 129.841 34.1621 131.237 34.1621C 132.469 34.1621 133.386 34.5238 133.987 35.2471C 134.589 35.9704 134.897 37.0518 134.911 38.4912L 134.911 46L 131.807 46L 131.807 38.5664C 131.807 37.9076 131.663 37.4313 131.377 37.1377C 131.09 36.8369 130.614 36.6865 129.948 36.6865C 129.075 36.6865 128.419 37.0589 127.982 37.8037L 127.982 46L 124.878 46L 124.878 34.377L 127.8 34.377ZM 4.10352 60.377L 4.2002 61.6768C 5.02376 60.667 6.13737 60.1621 7.54102 60.1621C 9.03776 60.1621 10.0654 60.7529 10.624 61.9346C 11.4404 60.7529 12.6042 60.1621 14.1152 60.1621C 15.3757 60.1621 16.3138 60.5309 16.9297 61.2686C 17.5456 61.999 17.8535 63.1019 17.8535 64.5771L 17.8535 72L 14.7383 72L 14.7383 64.5879C 14.7383 63.929 14.6094 63.4492 14.3516 63.1484C 14.0938 62.8405 13.639 62.6865 12.9873 62.6865C 12.0563 62.6865 11.4118 63.1305 11.0537 64.0186L 11.0645 72L 7.95996 72L 7.95996 64.5986C 7.95996 63.9255 7.82747 63.4385 7.5625 63.1377C 7.29753 62.8369 6.84635 62.6865 6.20898 62.6865C 5.32812 62.6865 4.69076 63.0518 4.29688 63.7822L 4.29688 72L 1.19238 72L 1.19238 60.377L 4.10352 60.377ZM 25.5986 72.2148C 23.8942 72.2148 22.5049 71.6921 21.4307 70.6465C 20.3636 69.6009 19.8301 68.208 19.8301 66.4678L 19.8301 66.167C 19.8301 64.9997 20.0557 63.9577 20.5068 63.041C 20.958 62.1172 21.5954 61.4082 22.4189 60.9141C 23.2497 60.4128 24.195 60.1621 25.2549 60.1621C 26.8447 60.1621 28.0944 60.6634 29.0039 61.666C 29.9206 62.6686 30.3789 64.0902 30.3789 65.9307L 30.3789 67.1982L 22.9775 67.1982C 23.0778 67.9574 23.3786 68.5661 23.8799 69.0244C 24.3883 69.4827 25.0293 69.7119 25.8027 69.7119C 26.9987 69.7119 27.9333 69.2786 28.6064 68.4121L 30.1318 70.1201C 29.6663 70.779 29.0361 71.2946 28.2412 71.667C 27.4463 72.0322 26.5654 72.2148 25.5986 72.2148ZM 25.2441 62.6758C 24.6283 62.6758 24.127 62.8835 23.7402 63.2988C 23.3607 63.7142 23.1172 64.3086 23.0098 65.082L 27.3281 65.082L 27.3281 64.835C 27.3138 64.1475 27.1276 63.6175 26.7695 63.2451C 26.4115 62.8656 25.903 62.6758 25.2441 62.6758ZM 37.501 72.2148C 35.7965 72.2148 34.4072 71.6921 33.333 70.6465C 32.266 69.6009 31.7324 68.208 31.7324 66.4678L 31.7324 66.167C 31.7324 64.9997 31.958 63.9577 32.4092 63.041C 32.8604 62.1172 33.4977 61.4082 34.3213 60.9141C 35.152 60.4128 36.0973 60.1621 37.1572 60.1621C 38.7471 60.1621 39.9967 60.6634 40.9062 61.666C 41.8229 62.6686 42.2812 64.0902 42.2812 65.9307L 42.2812 67.1982L 34.8799 67.1982C 34.9801 67.9574 35.2809 68.5661 35.7822 69.0244C 36.2907 69.4827 36.9316 69.7119 37.7051 69.7119C 38.901 69.7119 39.8356 69.2786 40.5088 68.4121L 42.0342 70.1201C 41.5687 70.779 40.9385 71.2946 40.1436 71.667C 39.3486 72.0322 38.4678 72.2148 37.501 72.2148ZM 37.1465 62.6758C 36.5306 62.6758 36.0293 62.8835 35.6426 63.2988C 35.263 63.7142 35.0195 64.3086 34.9121 65.082L 39.2305 65.082L 39.2305 64.835C 39.2161 64.1475 39.0299 63.6175 38.6719 63.2451C 38.3138 62.8656 37.8053 62.6758 37.1465 62.6758ZM 47.7705 57.5195L 47.7705 60.377L 49.7578 60.377L 49.7578 62.6543L 47.7705 62.6543L 47.7705 68.4551C 47.7705 68.8848 47.8529 69.1927 48.0176 69.3789C 48.1823 69.5651 48.4974 69.6582 48.9629 69.6582C 49.3066 69.6582 49.611 69.6331 49.876 69.583L 49.876 71.9355C 49.2673 72.1217 48.6406 72.2148 47.9961 72.2148C 45.819 72.2148 44.709 71.1156 44.666 68.917L 44.666 62.6543L 42.9688 62.6543L 42.9688 60.377L 44.666 60.377L 44.666 57.5195L 47.7705 57.5195ZM 56.4824 66.0811C 56.4824 64.9281 56.7044 63.9004 57.1484 62.998C 57.5924 62.0957 58.2298 61.3975 59.0605 60.9033C 59.8984 60.4092 60.8688 60.1621 61.9717 60.1621C 63.54 60.1621 64.8184 60.6419 65.8066 61.6016C 66.8021 62.5612 67.3571 63.8646 67.4717 65.5117L 67.4932 66.3066C 67.4932 68.0898 66.9954 69.5221 66 70.6035C 65.0046 71.6777 63.6689 72.2148 61.9932 72.2148C 60.3174 72.2148 58.9782 71.6777 57.9756 70.6035C 56.9801 69.5293 56.4824 68.0684 56.4824 66.2207L 56.4824 66.0811ZM 59.5869 66.3066C 59.5869 67.4095 59.7946 68.2546 60.21 68.8418C 60.6253 69.4219 61.2197 69.7119 61.9932 69.7119C 62.7451 69.7119 63.3324 69.4255 63.7549 68.8525C 64.1774 68.2725 64.3887 67.3486 64.3887 66.0811C 64.3887 64.9997 64.1774 64.1618 63.7549 63.5674C 63.3324 62.973 62.738 62.6758 61.9717 62.6758C 61.2126 62.6758 60.6253 62.973 60.21 63.5674C 59.7946 64.1546 59.5869 65.0677 59.5869 66.3066ZM 73.1221 57.5195L 73.1221 60.377L 75.1094 60.377L 75.1094 62.6543L 73.1221 62.6543L 73.1221 68.4551C 73.1221 68.8848 73.2044 69.1927 73.3691 69.3789C 73.5339 69.5651 73.849 69.6582 74.3145 69.6582C 74.6582 69.6582 74.9626 69.6331 75.2275 69.583L 75.2275 71.9355C 74.6188 72.1217 73.9922 72.2148 73.3477 72.2148C 71.1706 72.2148 70.0605 71.1156 70.0176 68.917L 70.0176 62.6543L 68.3203 62.6543L 68.3203 60.377L 70.0176 60.377L 70.0176 57.5195L 73.1221 57.5195ZM 79.8682 61.6445C 80.6917 60.6562 81.7266 60.1621 82.9727 60.1621C 85.4935 60.1621 86.7718 61.6266 86.8076 64.5557L 86.8076 72L 83.7031 72L 83.7031 64.6416C 83.7031 63.9756 83.5599 63.485 83.2734 63.1699C 82.987 62.8477 82.5107 62.6865 81.8447 62.6865C 80.9352 62.6865 80.2764 63.0374 79.8682 63.7393L 79.8682 72L 76.7637 72L 76.7637 55.5L 79.8682 55.5L 79.8682 61.6445ZM 94.499 72.2148C 92.7946 72.2148 91.4053 71.6921 90.3311 70.6465C 89.264 69.6009 88.7305 68.208 88.7305 66.4678L 88.7305 66.167C 88.7305 64.9997 88.9561 63.9577 89.4072 63.041C 89.8584 62.1172 90.4958 61.4082 91.3193 60.9141C 92.1501 60.4128 93.0954 60.1621 94.1553 60.1621C 95.7451 60.1621 96.9948 60.6634 97.9043 61.666C 98.821 62.6686 99.2793 64.0902 99.2793 65.9307L 99.2793 67.1982L 91.8779 67.1982C 91.9782 67.9574 92.279 68.5661 92.7803 69.0244C 93.2887 69.4827 93.9297 69.7119 94.7031 69.7119C 95.8991 69.7119 96.8337 69.2786 97.5068 68.4121L 99.0322 70.1201C 98.5667 70.779 97.9365 71.2946 97.1416 71.667C 96.3467 72.0322 95.4658 72.2148 94.499 72.2148ZM 94.1445 62.6758C 93.5286 62.6758 93.0273 62.8835 92.6406 63.2988C 92.2611 63.7142 92.0176 64.3086 91.9102 65.082L 96.2285 65.082L 96.2285 64.835C 96.2142 64.1475 96.028 63.6175 95.6699 63.2451C 95.3118 62.8656 94.8034 62.6758 94.1445 62.6758ZM 107.583 63.2881C 107.16 63.2308 106.788 63.2021 106.466 63.2021C 105.291 63.2021 104.521 63.5996 104.156 64.3945L 104.156 72L 101.052 72L 101.052 60.377L 103.984 60.377L 104.07 61.7627C 104.693 60.6956 105.556 60.1621 106.659 60.1621C 107.003 60.1621 107.325 60.2087 107.626 60.3018L 107.583 63.2881ZM 6.02637 95.7119C 6.59928 95.7119 7.06478 95.5544 7.42285 95.2393C 7.78092 94.9242 7.96712 94.5052 7.98145 93.9824L 10.8926 93.9824C 10.8854 94.7702 10.6706 95.4935 10.248 96.1523C 9.82552 96.804 9.24544 97.3125 8.50781 97.6777C 7.77734 98.0358 6.9681 98.2148 6.08008 98.2148C 4.41862 98.2148 3.10807 97.6885 2.14844 96.6357C 1.1888 95.5758 0.708984 94.1149 0.708984 92.2529L 0.708984 92.0488C 0.708984 90.2585 1.18522 88.8298 2.1377 87.7627C 3.09017 86.6956 4.39714 86.1621 6.05859 86.1621C 7.51237 86.1621 8.67611 86.5775 9.5498 87.4082C 10.4307 88.2318 10.8783 89.3311 10.8926 90.7061L 7.98145 90.7061C 7.96712 90.1045 7.78092 89.6175 7.42285 89.2451C 7.06478 88.8656 6.59212 88.6758 6.00488 88.6758C 5.28158 88.6758 4.73372 88.9408 4.36133 89.4707C 3.99609 89.9935 3.81348 90.8457 3.81348 92.0273L 3.81348 92.3496C 3.81348 93.5456 3.99609 94.4049 4.36133 94.9277C 4.72656 95.4505 5.28158 95.7119 6.02637 95.7119ZM 15.6943 87.6445C 16.5179 86.6562 17.5527 86.1621 18.7988 86.1621C 21.3197 86.1621 22.598 87.6266 22.6338 90.5557L 22.6338 98L 19.5293 98L 19.5293 90.6416C 19.5293 89.9756 19.3861 89.485 19.0996 89.1699C 18.8132 88.8477 18.3369 88.6865 17.6709 88.6865C 16.7614 88.6865 16.1025 89.0374 15.6943 89.7393L 15.6943 98L 12.5898 98L 12.5898 81.5L 15.6943 81.5L 15.6943 87.6445ZM 28.252 98L 25.1367 98L 25.1367 86.377L 28.252 86.377L 28.252 98ZM 24.9541 83.3691C 24.9541 82.9036 25.1081 82.5205 25.416 82.2197C 25.7311 81.9189 26.1572 81.7686 26.6943 81.7686C 27.2243 81.7686 27.6468 81.9189 27.9619 82.2197C 28.277 82.5205 28.4346 82.9036 28.4346 83.3691C 28.4346 83.8418 28.2734 84.2285 27.9512 84.5293C 27.6361 84.8301 27.2171 84.9805 26.6943 84.9805C 26.1715 84.9805 25.749 84.8301 25.4268 84.5293C 25.1117 84.2285 24.9541 83.8418 24.9541 83.3691ZM 34.0957 98L 30.9805 98L 30.9805 81.5L 34.0957 81.5L 34.0957 98ZM 36.1797 92.1025C 36.1797 90.2907 36.5843 88.8477 37.3936 87.7734C 38.21 86.6992 39.3236 86.1621 40.7344 86.1621C 41.8659 86.1621 42.8005 86.5846 43.5381 87.4297L 43.5381 81.5L 46.6533 81.5L 46.6533 98L 43.8496 98L 43.6992 96.7646C 42.9258 97.7314 41.9303 98.2148 40.7129 98.2148C 39.3451 98.2148 38.2458 97.6777 37.415 96.6035C 36.5915 95.5221 36.1797 94.0218 36.1797 92.1025ZM 39.2842 92.3281C 39.2842 93.4167 39.474 94.251 39.8535 94.8311C 40.2331 95.4111 40.7845 95.7012 41.5078 95.7012C 42.4674 95.7012 43.1442 95.2965 43.5381 94.4873L 43.5381 89.9004C 43.1514 89.0911 42.4818 88.6865 41.5293 88.6865C 40.0326 88.6865 39.2842 89.9004 39.2842 92.3281ZM 55.5908 89.2881C 55.1683 89.2308 54.7959 89.2021 54.4736 89.2021C 53.2992 89.2021 52.5293 89.5996 52.1641 90.3945L 52.1641 98L 49.0596 98L 49.0596 86.377L 51.9922 86.377L 52.0781 87.7627C 52.7012 86.6956 53.5641 86.1621 54.667 86.1621C 55.0107 86.1621 55.333 86.2087 55.6338 86.3018L 55.5908 89.2881ZM 62.2295 98.2148C 60.5251 98.2148 59.1357 97.6921 58.0615 96.6465C 56.9945 95.6009 56.4609 94.208 56.4609 92.4678L 56.4609 92.167C 56.4609 90.9997 56.6865 89.9577 57.1377 89.041C 57.5889 88.1172 58.2262 87.4082 59.0498 86.9141C 59.8805 86.4128 60.8258 86.1621 61.8857 86.1621C 63.4756 86.1621 64.7253 86.6634 65.6348 87.666C 66.5514 88.6686 67.0098 90.0902 67.0098 91.9307L 67.0098 93.1982L 59.6084 93.1982C 59.7087 93.9574 60.0094 94.5661 60.5107 95.0244C 61.0192 95.4827 61.6602 95.7119 62.4336 95.7119C 63.6296 95.7119 64.5641 95.2786 65.2373 94.4121L 66.7627 96.1201C 66.2972 96.779 65.667 97.2946 64.8721 97.667C 64.0771 98.0322 63.1963 98.2148 62.2295 98.2148ZM 61.875 88.6758C 61.2591 88.6758 60.7578 88.8835 60.3711 89.2988C 59.9915 89.7142 59.748 90.3086 59.6406 91.082L 63.959 91.082L 63.959 90.835C 63.9447 90.1475 63.7585 89.6175 63.4004 89.2451C 63.0423 88.8656 62.5339 88.6758 61.875 88.6758ZM 71.6396 86.377L 71.7363 87.7197C 72.5671 86.6813 73.6807 86.1621 75.0771 86.1621C 76.3089 86.1621 77.2256 86.5238 77.8271 87.2471C 78.4287 87.9704 78.7367 89.0518 78.751 90.4912L 78.751 98L 75.6465 98L 75.6465 90.5664C 75.6465 89.9076 75.5033 89.4313 75.2168 89.1377C 74.9303 88.8369 74.4541 88.6865 73.7881 88.6865C 72.9144 88.6865 72.2591 89.0589 71.8223 89.8037L 71.8223 98L 68.7178 98L 68.7178 86.377L 71.6396 86.377Z"/>
<path id="path1_fill" fill-rule="evenodd" d="M 40.2491 120.956C 40.2491 147.639 58.5684 169.704 81.8273 183.879C 91.3787 189.694 97.7957 198.979 99.4906 209.438C 101.113 219.496 98.0995 222.761 107.427 214.133C 116.27 205.959 128.597 202.097 140.965 203.53C 197.148 210.128 281.737 183.444 281.737 120.962C 281.737 9.11892 40.9257 10.8106 40.2491 120.956ZM 161 0C 249.921 0 322 54.1486 322 120.956C 322 206.674 217.435 250.086 135.894 240.443C 101.306 272.425 60.032 278.154 20.1246 279L 20.1246 271.177C 44.0773 260.331 63.9257 241.101 59.6902 214.96C 23.2762 192.787 0 158.906 0 120.956C 0 44.1487 86.3838 0 161 0Z"/>
</defs>
</svg>
