<svg width="55" height="55" viewBox="0 0 55 55" version="1.1" xmlns="http://www.w3.org/2000/svg" xmlns:xlink="http://www.w3.org/1999/xlink">
<title>schoolTrip</title>
<desc>Created using Figma</desc>
<g id="Canvas" transform="translate(132 2173)">
<g id="schoolTrip">
<use xlink:href="#path0_fill" transform="translate(-132 -2173)" fill="#00B5D6"/>
</g>
</g>
<defs>
<path id="path0_fill" d="M 48.6892 4.89474L 39.6101 4.89474C 37.2068 1.99415 32.5782 0 27.2375 0C 21.8968 0 17.2682 1.99415 14.8649 4.89474L 5.78574 4.89474C 2.58133 4.89474 0 6.64717 0 8.82261L 0 12.2066L 0 50.4581C 0 52.6335 2.58133 54.386 5.78574 54.386L 48.6002 54.386C 51.8046 54.386 54.386 52.6335 54.386 50.4581L 54.386 12.2671L 54.386 8.88304C 54.386 6.7076 51.8046 4.89474 48.6892 4.89474ZM 27.2375 2.59844C 30.2639 2.59844 33.0232 3.50487 34.8925 4.89474L 19.5825 4.89474C 21.4517 3.50487 24.2111 2.59844 27.2375 2.59844ZM 50.5585 50.4581C 50.5585 51.1832 49.6684 51.7875 48.6002 51.7875L 5.78574 51.7875C 4.7176 51.7875 3.82749 51.1832 3.82749 50.4581L 3.82749 47.6784L 50.4695 47.6784L 50.4695 50.4581L 50.5585 50.4581ZM 50.5585 45.0799L 3.9165 45.0799L 3.9165 18.7934C 6.49783 20.6667 10.1473 21.8148 14.2418 21.8148L 15.933 21.8148L 15.933 28.1598C 13.6187 28.2203 11.6605 29.5497 11.6605 31.1813L 11.6605 33.538C 11.6605 35.1696 13.5297 36.499 15.933 36.5595L 15.933 39.7018C 15.933 40.4269 16.8232 41.0312 17.8913 41.0312C 18.9594 41.0312 19.8495 40.4269 19.8495 39.7018L 19.8495 36.5595C 22.1638 36.499 24.1221 35.1696 24.1221 33.538L 24.1221 31.1813C 24.1221 29.5497 22.2529 28.2203 19.8495 28.1598L 19.8495 21.8148L 34.8925 21.8148L 34.8925 28.1598C 32.5782 28.2203 30.6199 29.5497 30.6199 31.1813L 30.6199 33.538C 30.6199 35.1696 32.4892 36.499 34.8925 36.5595L 34.8925 39.7018C 34.8925 40.4269 35.7826 41.0312 36.8507 41.0312C 37.9189 41.0312 38.809 40.4269 38.809 39.7018L 38.809 36.5595C 41.1233 36.499 43.0815 35.1696 43.0815 33.538L 43.0815 31.1813C 43.0815 29.5497 41.2123 28.2203 38.809 28.1598L 38.809 21.8148L 40.5002 21.8148C 44.5947 21.8148 48.2442 20.6667 50.8255 18.7934L 50.8255 45.0799L 50.5585 45.0799ZM 16.0221 33.9006C 15.933 33.9006 15.844 33.9006 15.844 33.9006C 15.577 33.8402 15.488 33.7193 15.488 33.538L 15.488 31.1813C 15.488 31 15.666 30.8791 15.844 30.8187C 15.933 30.8187 15.933 30.8187 16.0221 30.8187L 19.4935 30.8187C 19.5825 30.8187 19.6715 30.8187 19.6715 30.8187C 19.9386 30.8791 20.0276 31 20.0276 31.1813L 20.0276 33.538C 20.0276 33.7193 19.8495 33.8402 19.6715 33.9006C 19.5825 33.9006 19.5825 33.9006 19.4935 33.9006L 16.0221 33.9006ZM 34.9815 33.9006C 34.8925 33.9006 34.8035 33.9006 34.8035 33.9006C 34.5364 33.8402 34.3584 33.6589 34.3584 33.538L 34.3584 31.1813C 34.3584 31 34.5364 30.8791 34.7144 30.8187C 34.8035 30.8187 34.8035 30.8187 34.8925 30.8187L 38.3639 30.8187C 38.4529 30.8187 38.5419 30.8187 38.5419 30.8187C 38.809 30.8791 38.898 31 38.898 31.1813L 38.898 33.538C 38.898 33.7193 38.72 33.8402 38.5419 33.9006C 38.4529 33.9006 38.4529 33.9006 38.3639 33.9006L 34.9815 33.9006ZM 50.5585 12.2671C 50.5585 16.1345 45.9299 19.2768 40.2332 19.2768L 38.5419 19.2768L 38.5419 17.4035L 38.809 17.4035C 39.8771 17.4035 40.7672 16.7992 40.7672 16.0741C 40.7672 15.3489 39.8771 14.7446 38.809 14.7446L 34.6254 14.7446C 33.5573 14.7446 32.6672 15.3489 32.6672 16.0741C 32.6672 16.7992 33.5573 17.4035 34.6254 17.4035L 34.8035 17.4035L 34.8035 19.2768L 19.6715 19.2768L 19.6715 17.4035L 19.8495 17.4035C 20.9177 17.4035 21.8078 16.7992 21.8078 16.0741C 21.8078 15.3489 20.9177 14.7446 19.8495 14.7446L 15.666 14.7446C 14.5979 14.7446 13.7078 15.3489 13.7078 16.0741C 13.7078 16.7992 14.5979 17.4035 15.666 17.4035L 15.844 17.4035L 15.844 19.2768L 14.1528 19.2768C 8.45608 19.2768 3.82749 16.1345 3.82749 12.2671L 3.82749 8.88304C 3.82749 8.15789 4.7176 7.55361 5.78574 7.55361L 13.3517 7.55361L 17.3572 7.55361L 37.1178 7.55361L 41.1233 7.55361L 48.6892 7.55361C 49.7574 7.55361 50.6475 8.15789 50.6475 8.88304L 50.6475 12.2671L 50.5585 12.2671Z"/>
</defs>
</svg>
