<svg width="69" height="62" viewBox="0 0 69 62" version="1.1" xmlns="http://www.w3.org/2000/svg" xmlns:xlink="http://www.w3.org/1999/xlink">
<title>Vector</title>
<desc>Created using Figma</desc>
<g id="Canvas" transform="translate(-2214 2655)">
<g id="Vector">
<use xlink:href="#path0_fill" transform="translate(2214 -2655)" fill="#EB5757"/>
</g>
</g>
<defs>
<path id="path0_fill" d="M 66.5379 0.0333689L 1.51885 15.7968C 0.704418 15.9327 0.161462 16.6122 0.0257225 17.5634C -0.110017 18.3788 0.2972 19.1941 1.11164 19.6018L 25.2732 33.191L 31.2457 60.3693C 31.3815 61.1847 32.0602 61.8641 32.8746 62C 33.0103 62 33.1461 62 33.1461 62C 33.8248 62 34.5035 61.5923 34.9107 61.0488L 68.7097 3.29477C 69.117 2.61531 69.1169 1.66407 68.574 0.984611C 68.1668 0.16926 67.3523 -0.102523 66.5379 0.0333689ZM 7.62711 18.5146L 57.8506 6.42028L 26.9021 29.2501L 7.62711 18.5146ZM 34.0962 54.2542L 29.3454 32.6474L 60.1582 9.68168L 34.0962 54.2542Z"/>
</defs>
</svg>
