<svg width="253" height="227" viewBox="0 0 253 227" version="1.1" xmlns="http://www.w3.org/2000/svg" xmlns:xlink="http://www.w3.org/1999/xlink">
<title>Vector</title>
<desc>Created using Figma</desc>
<g id="Canvas" transform="translate(-2693 2799)">
<g id="Vector">
<use xlink:href="#path0_fill" transform="translate(2693 -2799)" fill="#FFFFFF"/>
</g>
</g>
<defs>
<path id="path0_fill" d="M 243.972 0.122173L 5.56913 57.8367C 2.58287 58.3342 0.592026 60.8219 0.0943158 64.3047C -0.403394 67.29 1.08973 70.2752 4.076 71.7678L 92.6684 121.522L 114.568 221.03C 115.065 224.015 117.554 226.502 120.54 227C 121.038 227 121.536 227 121.536 227C 124.024 227 126.513 225.507 128.006 223.517L 251.936 12.0631C 253.429 9.57541 253.429 6.09264 251.438 3.60495C 249.945 0.619711 246.959 -0.375366 243.972 0.122173ZM 27.9661 67.7875L 212.119 23.5065L 98.6409 107.093L 27.9661 67.7875ZM 125.02 198.64L 107.6 119.532L 220.58 35.4474L 125.02 198.64Z"/>
</defs>
</svg>
