<svg width="52" height="51" viewBox="0 0 52 51" version="1.1" xmlns="http://www.w3.org/2000/svg" xmlns:xlink="http://www.w3.org/1999/xlink">
<title>Vector</title>
<desc>Created using Figma</desc>
<g id="Canvas" transform="translate(-115 2030)">
<g id="Vector">
<use xlink:href="#path0_fill" transform="translate(115.017 -2030)"/>
</g>
</g>
<defs>
<path id="path0_fill" d="M 41.0653 50.0122C 41.3324 49.9791 41.5901 49.8919 41.8228 49.7557C 42.0554 49.6195 42.2583 49.4371 42.4192 49.2198C 42.5801 49.0024 42.6956 48.7545 42.7588 48.4909C 42.822 48.2273 42.8315 47.9536 42.7868 47.6862L 40.2437 32.1133L 51.3749 21.0154C 51.6368 20.7539 51.8216 20.4243 51.9087 20.0633C 51.9958 19.7023 51.9818 19.324 51.8683 18.9706C 51.7547 18.6171 51.5461 18.3023 51.2655 18.0613C 50.985 17.8202 50.6436 17.6623 50.2793 17.6051L 34.7857 15.2199L 27.7627 1.10581C 27.5968 0.77337 27.3425 0.493951 27.0282 0.298683C 26.7138 0.103416 26.3518 -2.26421e-05 25.9825 -2.26421e-05C 25.6132 -2.26421e-05 25.2512 0.103416 24.9369 0.298683C 24.6225 0.493951 24.3682 0.77337 24.2023 1.10581L 17.1793 15.2199L 1.68572 17.6051C 1.32143 17.6623 0.98004 17.8202 0.699528 18.0613C 0.419016 18.3024 0.210383 18.6172 0.0968421 18.9706C -0.0166992 19.3241 -0.030696 19.7023 0.0564082 20.0633C 0.143512 20.4243 0.328302 20.7539 0.590218 21.0154L 11.7213 32.1133L 9.17812 47.6862C 9.11636 48.0555 9.1583 48.4347 9.29922 48.7812C 9.44014 49.1277 9.67441 49.4276 9.97557 49.647C 10.2767 49.8664 10.6328 49.9965 11.0035 50.0227C 11.3742 50.049 11.7448 49.9702 12.0734 49.7953L 25.9825 42.5412L 39.8916 49.7953C 40.2517 49.9867 40.6613 50.0625 41.0653 50.0122L 41.0653 50.0122ZM 38.2091 44.3941L 26.902 38.5002C 26.618 38.3513 26.3026 38.2736 25.9825 38.2736C 25.6624 38.2736 25.347 38.3513 25.063 38.5002L 13.7559 44.3941L 15.8294 31.7389C 15.881 31.422 15.8564 31.0974 15.7577 30.7921C 15.659 30.4868 15.4891 30.2099 15.2622 29.9845L 6.20462 20.9562L 18.7834 19.0441C 19.0993 18.9967 19.3993 18.8735 19.6581 18.6848C 19.9168 18.4961 20.1268 18.2474 20.2702 17.9599L 25.9825 6.48728L 31.6948 17.9599C 31.8383 18.2474 32.0482 18.4961 32.307 18.6848C 32.5657 18.8735 32.8657 18.9967 33.1816 19.0441L 45.7604 20.9562L 36.7028 29.9845C 36.476 30.2099 36.3061 30.4868 36.2074 30.7921C 36.1087 31.0974 36.0841 31.422 36.1356 31.7389L 38.2091 44.3941L 38.2091 44.3941Z"/>
</defs>
</svg>
