<svg width="68" height="68" viewBox="0 0 68 68" version="1.1" xmlns="http://www.w3.org/2000/svg" xmlns:xlink="http://www.w3.org/1999/xlink">
<title>Vector</title>
<desc>Created using Figma</desc>
<g id="Canvas" transform="translate(-218 2254)">
<g id="Vector">
<use xlink:href="#path0_fill" transform="translate(218 -2254)" fill="#00B5D6"/>
</g>
</g>
<defs>
<path id="path0_fill" d="M 66.2334 0.0159762C 65.893 0.065153 65.5787 0.226523 65.3403 0.474512L 15.9067 49.8999C 15.7578 50.0414 15.6387 50.2112 15.5562 50.3994C 15.4738 50.5875 15.4297 50.7902 15.4266 50.9956C 15.4234 51.2009 15.4613 51.4049 15.5379 51.5954C 15.6145 51.786 15.7284 51.9594 15.8729 52.1054C 16.0173 52.2515 16.1895 52.3672 16.3792 52.446C 16.569 52.5247 16.7725 52.5648 16.9779 52.5639C 17.1834 52.563 17.3866 52.5212 17.5756 52.4409C 17.7647 52.3605 17.9358 52.2433 18.079 52.096L 33.0684 37.1091C 39.5733 37.0574 48.041 36.1842 55.106 33.0788C 62.2039 29.9591 67.9713 24.2346 67.9713 15.0994L 67.9713 9.30737C 67.9742 9.1027 67.9364 8.89949 67.8601 8.70957C 67.7837 8.51964 67.6704 8.34677 67.5267 8.20102C 67.3829 8.05526 67.2117 7.93952 67.0228 7.86052C 66.8339 7.78152 66.6313 7.74084 66.4265 7.74084C 66.2218 7.74084 66.0191 7.78152 65.8303 7.86052C 65.6414 7.93952 65.4701 8.05526 65.3264 8.20102C 65.1826 8.34677 65.0693 8.51964 64.993 8.70957C 64.9166 8.89949 64.8788 9.1027 64.8817 9.30737L 64.8817 15.0994C 64.8817 22.9831 60.3148 27.4247 53.875 30.2552C 48.5162 32.6106 41.9692 33.581 36.3029 33.8753L 67.5127 2.67066C 67.7523 2.44569 67.9139 2.1502 67.974 1.82713C 68.034 1.50406 67.9895 1.17024 67.8469 0.874205C 67.7042 0.578165 67.4708 0.335327 67.1807 0.180985C 66.8905 0.0266423 66.5587 -0.0311608 66.2334 0.0159762L 66.2334 0.0159762ZM 1.39999 15.4855C 1.01589 15.5217 0.659237 15.7003 0.400164 15.9861C 0.141091 16.272 -0.00164916 16.6443 1.43783e-05 17.0301L 1.43783e-05 66.4555C 5.53416e-05 66.8651 0.162824 67.2579 0.452522 67.5476C 0.74222 67.8372 1.13512 68 1.54482 68L 50.9785 68C 51.3882 68 51.7811 67.8372 52.0708 67.5476C 52.3605 67.2579 52.5233 66.8651 52.5233 66.4555L 52.5233 43.2873C 52.5262 43.0826 52.4884 42.8794 52.412 42.6895C 52.3357 42.4996 52.2224 42.3267 52.0786 42.181C 51.9349 42.0352 51.7636 41.9195 51.5748 41.8405C 51.3859 41.7615 51.1832 41.7208 50.9785 41.7208C 50.7738 41.7208 50.5711 41.7615 50.3822 41.8405C 50.1934 41.9195 50.0221 42.0352 49.8784 42.181C 49.7346 42.3267 49.6213 42.4996 49.545 42.6895C 49.4686 42.8794 49.4308 43.0826 49.4337 43.2873L 49.4337 64.9109L 3.08962 64.9109L 3.08962 18.5746L 36.3029 18.5746C 36.5076 18.5775 36.7108 18.5397 36.9008 18.4634C 37.0907 18.3871 37.2636 18.2738 37.4094 18.13C 37.5552 17.9863 37.671 17.8151 37.75 17.6263C 37.829 17.4374 37.8697 17.2348 37.8697 17.0301C 37.8697 16.8254 37.829 16.6227 37.75 16.4339C 37.671 16.2451 37.5552 16.0738 37.4094 15.9301C 37.2636 15.7864 37.0907 15.6731 36.9008 15.5968C 36.7108 15.5205 36.5076 15.4826 36.3029 15.4855L 1.54482 15.4855C 1.49657 15.4833 1.44824 15.4833 1.39999 15.4855L 1.39999 15.4855Z"/>
</defs>
</svg>
