<svg xmlns="http://www.w3.org/2000/svg" xmlns:xlink="http://www.w3.org/1999/xlink" version="1.1" x="0px" y="0px" viewBox="0 0 100 125" style="enable-background:new 0 0 100 100;" xml:space="preserve"><path d="M74.1,13.1H63.9C61.2,8.3,56,5,50,5s-11.2,3.3-13.9,8.1H25.9c-3.6,0-6.5,2.9-6.5,6.5v5.6v63.3c0,3.6,2.9,6.5,6.5,6.5h48.1  c3.6,0,6.5-2.9,6.5-6.5V25.3v-5.6C80.5,16.1,77.6,13.1,74.1,13.1z M50,9.3c3.4,0,6.5,1.5,8.6,3.8H41.4C43.5,10.8,46.6,9.3,50,9.3z   M76.2,88.5c0,1.2-1,2.2-2.2,2.2H25.9c-1.2,0-2.2-1-2.2-2.2v-4.6h52.4V88.5z M76.2,79.6H23.8V36.1c2.9,3.1,7,5,11.6,5h1.9v10.5  c-2.6,0.1-4.8,2.3-4.8,5v3.9c0,2.7,2.1,4.9,4.8,5v5.2c0,1.2,1,2.2,2.2,2.2c1.2,0,2.2-1,2.2-2.2v-5.2c2.6-0.1,4.8-2.3,4.8-5v-3.9  c0-2.7-2.1-4.9-4.8-5V41.1h16.9v10.5c-2.6,0.1-4.8,2.3-4.8,5v3.9c0,2.7,2.1,4.9,4.8,5v5.2c0,1.2,1,2.2,2.2,2.2c1.2,0,2.2-1,2.2-2.2  v-5.2c2.6-0.1,4.8-2.3,4.8-5v-3.9c0-2.7-2.1-4.9-4.8-5V41.1h1.9c4.6,0,8.7-1.9,11.6-5V79.6z M37.4,61.1c-0.1,0-0.2,0-0.2,0  c-0.3-0.1-0.4-0.3-0.4-0.6v-3.9c0-0.3,0.2-0.5,0.4-0.6c0.1,0,0.1,0,0.2,0h3.9c0.1,0,0.2,0,0.2,0c0.3,0.1,0.4,0.3,0.4,0.6v3.9  c0,0.3-0.2,0.5-0.4,0.6c-0.1,0-0.1,0-0.2,0H37.4z M58.7,61.1c-0.1,0-0.2,0-0.2,0C58.2,61,58,60.7,58,60.5v-3.9  c0-0.3,0.2-0.5,0.4-0.6c0.1,0,0.1,0,0.2,0h3.9c0.1,0,0.2,0,0.2,0c0.3,0.1,0.4,0.3,0.4,0.6v3.9c0,0.3-0.2,0.5-0.4,0.6  c-0.1,0-0.1,0-0.2,0H58.7z M76.2,25.3c0,6.4-5.2,11.6-11.6,11.6h-1.9v-3.1H63c1.2,0,2.2-1,2.2-2.2c0-1.2-1-2.2-2.2-2.2h-4.7  c-1.2,0-2.2,1-2.2,2.2c0,1.2,1,2.2,2.2,2.2h0.2v3.1H41.5v-3.1h0.2c1.2,0,2.2-1,2.2-2.2c0-1.2-1-2.2-2.2-2.2H37c-1.2,0-2.2,1-2.2,2.2  c0,1.2,1,2.2,2.2,2.2h0.2v3.1h-1.9c-6.4,0-11.6-5.2-11.6-11.6v-5.6c0-1.2,1-2.2,2.2-2.2h8.5h4.5h22.2h4.5h8.5c1.2,0,2.2,1,2.2,2.2  V25.3z"/><text x="0" y="115" fill="#000000" font-size="5px" font-weight="bold" font-family="'Helvetica Neue', Helvetica, Arial-Unicode, Arial, Sans-serif">Created by Yoshi</text><text x="0" y="120" fill="#000000" font-size="5px" font-weight="bold" font-family="'Helvetica Neue', Helvetica, Arial-Unicode, Arial, Sans-serif">from the Noun Project</text></svg>